<svg width="25" height="25" viewBox="0 0 25 25" fill="none" xmlns="http://www.w3.org/2000/svg">
<path id="&#239;&#141;&#155;" d="M21.4277 20.7368C19.1051 23.0594 16.2825 24.2207 12.96 24.2207C9.63738 24.2207 6.79867 23.0594 4.44383 20.7368C2.12125 18.382 0.959961 15.5433 0.959961 12.2207C0.959961 8.89812 2.12125 6.07554 4.44383 3.75296C6.79867 1.39812 9.63738 0.220703 12.96 0.220703C16.2825 0.220703 19.1051 1.39812 21.4277 3.75296C23.7825 6.07554 24.96 8.89812 24.96 12.2207C24.96 15.5433 23.7825 18.382 21.4277 20.7368ZM19.7825 5.39812C17.9116 3.4949 15.6374 2.54328 12.96 2.54328C10.2825 2.54328 7.99222 3.4949 6.08899 5.39812C4.21803 7.26909 3.28254 9.54328 3.28254 12.2207C3.28254 14.8981 4.21803 17.1884 6.08899 19.0917C7.99222 20.9626 10.2825 21.8981 12.96 21.8981C15.6374 21.8981 17.9116 20.9626 19.7825 19.0917C21.6858 17.1884 22.6374 14.8981 22.6374 12.2207C22.6374 9.54328 21.6858 7.26909 19.7825 5.39812ZM13.9277 18.4143H11.9922C11.6051 18.4143 11.4116 18.2207 11.4116 17.8336V12.2207H8.16964C7.91157 12.2207 7.73415 12.1078 7.63738 11.882C7.54061 11.6239 7.57286 11.4143 7.73415 11.253L12.5729 6.41425C12.8309 6.15619 13.089 6.15619 13.3471 6.41425L18.1858 11.253C18.3471 11.4143 18.3793 11.6239 18.2825 11.882C18.1858 12.1078 18.0083 12.2207 17.7503 12.2207H14.5083V17.8336C14.5083 18.2207 14.3148 18.4143 13.9277 18.4143Z" fill="#EB6E2E"/>
</svg>
