<svg width="79" height="79" viewBox="0 0 79 79" fill="none" xmlns="http://www.w3.org/2000/svg">
<path id="Vector" d="M39.7465 39.5V2C46.3174 2.00074 52.7728 3.72807 58.4661 7.00897C64.1593 10.2899 68.8906 15.0091 72.1858 20.6941C75.4811 26.379 77.2248 32.83 77.2421 39.401C77.2595 45.9719 75.5499 52.432 72.2847 58.1343C69.0195 63.8365 64.3133 68.5808 58.6375 71.8917C52.9616 75.2026 46.5154 76.964 39.9446 76.9994C33.3737 77.0349 26.9089 75.3432 21.1977 72.0937C15.4864 68.8442 10.7293 64.1511 7.40273 58.4844M72.2074 20.75L7.28554 58.25M2.87148 46.375C2.44515 44.1084 2.23587 41.8063 2.24648 39.5C2.24154 31.7445 4.64381 24.1786 9.12177 17.8465C13.5997 11.5144 19.9326 6.72821 27.2465 4.14844V32.2734L2.87148 46.375Z" stroke="white" stroke-width="3" stroke-linecap="round" stroke-linejoin="round"/>
</svg>
