<svg width="96" height="95" viewBox="0 0 96 95" fill="none" xmlns="http://www.w3.org/2000/svg">
<g id="Frame">
<path id="Vector" d="M43.7891 67.2923L51.7057 75.209C52.4855 75.9887 53.4111 76.6072 54.4299 77.0292C55.4486 77.4512 56.5405 77.6684 57.6432 77.6684C58.7459 77.6684 59.8378 77.4512 60.8566 77.0292C61.8753 76.6072 62.801 75.9887 63.5807 75.209C64.3605 74.4293 64.979 73.5036 65.4009 72.4848C65.8229 71.4661 66.0401 70.3742 66.0401 69.2715C66.0401 68.1688 65.8229 67.0769 65.4009 66.0581C64.979 65.0394 64.3605 64.1137 63.5807 63.334" stroke="white" stroke-width="3" stroke-linecap="round" stroke-linejoin="round"/>
<path id="Vector_2" d="M55.6612 55.4167L65.5571 65.3125C67.1318 66.8873 69.2676 67.7719 71.4946 67.7719C73.7215 67.7719 75.8573 66.8873 77.4321 65.3125C79.0068 63.7378 79.8914 61.602 79.8914 59.375C79.8914 57.148 79.0068 55.0123 77.4321 53.4375L62.0737 38.0792C59.8471 35.8554 56.8289 34.6063 53.682 34.6063C50.5352 34.6063 47.517 35.8554 45.2904 38.0792L41.807 41.5625C40.2323 43.1373 38.0965 44.0219 35.8695 44.0219C33.6426 44.0219 31.5068 43.1373 29.932 41.5625C28.3573 39.9878 27.4727 37.852 27.4727 35.625C27.4727 33.398 28.3573 31.2623 29.932 29.6875L41.055 18.5646C44.6659 14.9631 49.375 12.6689 54.4367 12.0451C59.4984 11.4214 64.6235 12.5037 69.0008 15.1209L70.8612 16.2292C72.5466 17.2464 74.5506 17.5993 76.4821 17.2188L83.3696 15.8334" stroke="white" stroke-width="3" stroke-linecap="round" stroke-linejoin="round"/>
<path id="Vector_3" d="M83.3724 11.875L87.3307 55.4167H79.4141" stroke="white" stroke-width="3" stroke-linecap="round" stroke-linejoin="round"/>
<path id="Vector_4" d="M12.1224 11.875L8.16406 55.4167L33.8932 81.1458C35.468 82.7206 37.6037 83.6052 39.8307 83.6052C42.0577 83.6052 44.1935 82.7206 45.7682 81.1458C47.343 79.5711 48.2276 77.4353 48.2276 75.2083C48.2276 72.9813 47.343 70.8456 45.7682 69.2708" stroke="white" stroke-width="3" stroke-linecap="round" stroke-linejoin="round"/>
<path id="Vector_5" d="M12.1211 15.834H43.7878" stroke="white" stroke-width="3" stroke-linecap="round" stroke-linejoin="round"/>
</g>
</svg>
