<svg width="96" height="95" viewBox="0 0 96 95" fill="none" xmlns="http://www.w3.org/2000/svg">
<g id="Frame">
<path id="Vector" d="M71.4948 15.834H23.9948C19.6225 15.834 16.0781 19.3784 16.0781 23.7507V71.2506C16.0781 75.6229 19.6225 79.1673 23.9948 79.1673H71.4948C75.867 79.1673 79.4115 75.6229 79.4115 71.2506V23.7507C79.4115 19.3784 75.867 15.834 71.4948 15.834Z" stroke="white" stroke-width="3" stroke-linecap="round" stroke-linejoin="round"/>
<path id="Vector_2" d="M59.6211 35.625H35.8711V59.375H59.6211V35.625Z" stroke="white" stroke-width="3" stroke-linecap="round" stroke-linejoin="round"/>
<path id="Vector_3" d="M59.6211 7.91602V15.8327" stroke="white" stroke-width="3" stroke-linecap="round" stroke-linejoin="round"/>
<path id="Vector_4" d="M59.6211 79.166V87.0827" stroke="white" stroke-width="3" stroke-linecap="round" stroke-linejoin="round"/>
<path id="Vector_5" d="M8.16406 59.375H16.0807" stroke="white" stroke-width="3" stroke-linecap="round" stroke-linejoin="round"/>
<path id="Vector_6" d="M8.16406 35.625H16.0807" stroke="white" stroke-width="3" stroke-linecap="round" stroke-linejoin="round"/>
<path id="Vector_7" d="M79.4141 59.375H87.3307" stroke="white" stroke-width="3" stroke-linecap="round" stroke-linejoin="round"/>
<path id="Vector_8" d="M79.4141 35.625H87.3307" stroke="white" stroke-width="3" stroke-linecap="round" stroke-linejoin="round"/>
<path id="Vector_9" d="M35.8711 7.91602V15.8327" stroke="white" stroke-width="3" stroke-linecap="round" stroke-linejoin="round"/>
<path id="Vector_10" d="M35.8711 79.166V87.0827" stroke="white" stroke-width="3" stroke-linecap="round" stroke-linejoin="round"/>
</g>
</svg>
