<svg width="1920" height="1080" viewBox="0 0 1920 1080" fill="none" xmlns="http://www.w3.org/2000/svg">
<g clip-path="url(#clip0_624_5025)">
<path d="M1920 0H0V1080H1920V0Z" fill="#2A2A2A"/>
<path opacity="0.03" d="M83.41 0H0V1080H83.41V0Z" fill="url(#paint0_linear_624_5025)"/>
<path opacity="0.03" d="M166.82 0H83.4102V1080H166.82V0Z" fill="url(#paint1_linear_624_5025)"/>
<path opacity="0.03" d="M250.23 0H166.82V1080H250.23V0Z" fill="url(#paint2_linear_624_5025)"/>
<path opacity="0.03" d="M333.64 0H250.23V1080H333.64V0Z" fill="url(#paint3_linear_624_5025)"/>
<path opacity="0.03" d="M417.262 0H333.852V1080H417.262V0Z" fill="url(#paint4_linear_624_5025)"/>
<path opacity="0.03" d="M500.672 0H417.262V1080H500.672V0Z" fill="url(#paint5_linear_624_5025)"/>
<path opacity="0.03" d="M584.082 0H500.672V1080H584.082V0Z" fill="url(#paint6_linear_624_5025)"/>
<path opacity="0.03" d="M667.488 0H584.078V1080H667.488V0Z" fill="url(#paint7_linear_624_5025)"/>
<path opacity="0.03" d="M750.898 0H667.488V1080H750.898V0Z" fill="url(#paint8_linear_624_5025)"/>
<path opacity="0.03" d="M834.308 0H750.898V1080H834.308V0Z" fill="url(#paint9_linear_624_5025)"/>
<path opacity="0.03" d="M917.719 0H834.309V1080H917.719V0Z" fill="url(#paint10_linear_624_5025)"/>
<path opacity="0.03" d="M1001.12 0H917.711V1080H1001.12V0Z" fill="url(#paint11_linear_624_5025)"/>
<path opacity="0.03" d="M1084.75 0H1001.34V1080H1084.75V0Z" fill="url(#paint12_linear_624_5025)"/>
<path opacity="0.03" d="M1168.15 0H1084.74V1080H1168.15V0Z" fill="url(#paint13_linear_624_5025)"/>
<path opacity="0.03" d="M1251.56 0H1168.15V1080H1251.56V0Z" fill="url(#paint14_linear_624_5025)"/>
<path opacity="0.03" d="M1334.97 0H1251.56V1080H1334.97V0Z" fill="url(#paint15_linear_624_5025)"/>
<path opacity="0.03" d="M1418.38 0H1334.97V1080H1418.38V0Z" fill="url(#paint16_linear_624_5025)"/>
<path opacity="0.03" d="M1501.79 0H1418.38V1080H1501.79V0Z" fill="url(#paint17_linear_624_5025)"/>
<path opacity="0.03" d="M1585.2 0H1501.79V1080H1585.2V0Z" fill="url(#paint18_linear_624_5025)"/>
<path opacity="0.03" d="M1668.61 0H1585.2V1080H1668.61V0Z" fill="url(#paint19_linear_624_5025)"/>
<path opacity="0.03" d="M1752.02 0H1668.61V1080H1752.02V0Z" fill="url(#paint20_linear_624_5025)"/>
<path opacity="0.03" d="M1835.43 0H1752.02V1080H1835.43V0Z" fill="url(#paint21_linear_624_5025)"/>
<path opacity="0.03" d="M1918.84 0H1835.43V1080H1918.84V0Z" fill="url(#paint22_linear_624_5025)"/>
<g filter="url(#filter0_f_624_5025)">
<path d="M42 677.5H895V1059.5H42V677.5Z" fill="#8F8F8F"/>
</g>
<g filter="url(#filter1_f_624_5025)">
<rect x="1294" y="309" width="609" height="272" fill="#8F8F8F"/>
</g>
</g>
<defs>
<filter id="filter0_f_624_5025" x="-258" y="377.5" width="1453" height="982" filterUnits="userSpaceOnUse" color-interpolation-filters="sRGB">
<feFlood flood-opacity="0" result="BackgroundImageFix"/>
<feBlend mode="normal" in="SourceGraphic" in2="BackgroundImageFix" result="shape"/>
<feGaussianBlur stdDeviation="150" result="effect1_foregroundBlur_624_5025"/>
</filter>
<filter id="filter1_f_624_5025" x="994" y="9" width="1209" height="872" filterUnits="userSpaceOnUse" color-interpolation-filters="sRGB">
<feFlood flood-opacity="0" result="BackgroundImageFix"/>
<feBlend mode="normal" in="SourceGraphic" in2="BackgroundImageFix" result="shape"/>
<feGaussianBlur stdDeviation="150" result="effect1_foregroundBlur_624_5025"/>
</filter>
<linearGradient id="paint0_linear_624_5025" x1="5.58" y1="540" x2="78.11" y2="540" gradientUnits="userSpaceOnUse">
<stop stop-color="white" stop-opacity="0"/>
<stop offset="1" stop-color="white"/>
</linearGradient>
<linearGradient id="paint1_linear_624_5025" x1="88.9902" y1="0" x2="161.52" y2="0" gradientUnits="userSpaceOnUse">
<stop stop-color="white" stop-opacity="0"/>
<stop offset="1" stop-color="white"/>
</linearGradient>
<linearGradient id="paint2_linear_624_5025" x1="172.4" y1="0" x2="244.93" y2="0" gradientUnits="userSpaceOnUse">
<stop stop-color="white" stop-opacity="0"/>
<stop offset="1" stop-color="white"/>
</linearGradient>
<linearGradient id="paint3_linear_624_5025" x1="255.81" y1="0" x2="328.34" y2="0" gradientUnits="userSpaceOnUse">
<stop stop-color="white" stop-opacity="0"/>
<stop offset="1" stop-color="white"/>
</linearGradient>
<linearGradient id="paint4_linear_624_5025" x1="339.432" y1="0" x2="411.962" y2="0" gradientUnits="userSpaceOnUse">
<stop stop-color="white" stop-opacity="0"/>
<stop offset="1" stop-color="white"/>
</linearGradient>
<linearGradient id="paint5_linear_624_5025" x1="422.842" y1="0" x2="495.372" y2="0" gradientUnits="userSpaceOnUse">
<stop stop-color="white" stop-opacity="0"/>
<stop offset="1" stop-color="white"/>
</linearGradient>
<linearGradient id="paint6_linear_624_5025" x1="506.252" y1="0" x2="578.782" y2="0" gradientUnits="userSpaceOnUse">
<stop stop-color="white" stop-opacity="0"/>
<stop offset="1" stop-color="white"/>
</linearGradient>
<linearGradient id="paint7_linear_624_5025" x1="589.658" y1="0" x2="662.188" y2="0" gradientUnits="userSpaceOnUse">
<stop stop-color="white" stop-opacity="0"/>
<stop offset="1" stop-color="white"/>
</linearGradient>
<linearGradient id="paint8_linear_624_5025" x1="673.068" y1="0" x2="745.598" y2="0" gradientUnits="userSpaceOnUse">
<stop stop-color="white" stop-opacity="0"/>
<stop offset="1" stop-color="white"/>
</linearGradient>
<linearGradient id="paint9_linear_624_5025" x1="756.478" y1="0" x2="829.008" y2="0" gradientUnits="userSpaceOnUse">
<stop stop-color="white" stop-opacity="0"/>
<stop offset="1" stop-color="white"/>
</linearGradient>
<linearGradient id="paint10_linear_624_5025" x1="839.889" y1="0" x2="912.419" y2="0" gradientUnits="userSpaceOnUse">
<stop stop-color="white" stop-opacity="0"/>
<stop offset="1" stop-color="white"/>
</linearGradient>
<linearGradient id="paint11_linear_624_5025" x1="923.301" y1="0" x2="995.831" y2="0" gradientUnits="userSpaceOnUse">
<stop stop-color="white" stop-opacity="0"/>
<stop offset="1" stop-color="white"/>
</linearGradient>
<linearGradient id="paint12_linear_624_5025" x1="1006.92" y1="0" x2="1079.45" y2="0" gradientUnits="userSpaceOnUse">
<stop stop-color="white" stop-opacity="0"/>
<stop offset="1" stop-color="white"/>
</linearGradient>
<linearGradient id="paint13_linear_624_5025" x1="1090.33" y1="0" x2="1162.86" y2="0" gradientUnits="userSpaceOnUse">
<stop stop-color="white" stop-opacity="0"/>
<stop offset="1" stop-color="white"/>
</linearGradient>
<linearGradient id="paint14_linear_624_5025" x1="1173.74" y1="0" x2="1246.27" y2="0" gradientUnits="userSpaceOnUse">
<stop stop-color="white" stop-opacity="0"/>
<stop offset="1" stop-color="white"/>
</linearGradient>
<linearGradient id="paint15_linear_624_5025" x1="1257.15" y1="0" x2="1329.67" y2="0" gradientUnits="userSpaceOnUse">
<stop stop-color="white" stop-opacity="0"/>
<stop offset="1" stop-color="white"/>
</linearGradient>
<linearGradient id="paint16_linear_624_5025" x1="1340.56" y1="0" x2="1413.08" y2="0" gradientUnits="userSpaceOnUse">
<stop stop-color="white" stop-opacity="0"/>
<stop offset="1" stop-color="white"/>
</linearGradient>
<linearGradient id="paint17_linear_624_5025" x1="1423.97" y1="0" x2="1496.49" y2="0" gradientUnits="userSpaceOnUse">
<stop stop-color="white" stop-opacity="0"/>
<stop offset="1" stop-color="white"/>
</linearGradient>
<linearGradient id="paint18_linear_624_5025" x1="1507.38" y1="0" x2="1579.9" y2="0" gradientUnits="userSpaceOnUse">
<stop stop-color="white" stop-opacity="0"/>
<stop offset="1" stop-color="white"/>
</linearGradient>
<linearGradient id="paint19_linear_624_5025" x1="1590.79" y1="0" x2="1663.31" y2="0" gradientUnits="userSpaceOnUse">
<stop stop-color="white" stop-opacity="0"/>
<stop offset="1" stop-color="white"/>
</linearGradient>
<linearGradient id="paint20_linear_624_5025" x1="1674.19" y1="0" x2="1746.72" y2="0" gradientUnits="userSpaceOnUse">
<stop stop-color="white" stop-opacity="0"/>
<stop offset="1" stop-color="white"/>
</linearGradient>
<linearGradient id="paint21_linear_624_5025" x1="1757.6" y1="0" x2="1830.13" y2="0" gradientUnits="userSpaceOnUse">
<stop stop-color="white" stop-opacity="0"/>
<stop offset="1" stop-color="white"/>
</linearGradient>
<linearGradient id="paint22_linear_624_5025" x1="1841.01" y1="0" x2="1913.54" y2="0" gradientUnits="userSpaceOnUse">
<stop stop-color="white" stop-opacity="0"/>
<stop offset="1" stop-color="white"/>
</linearGradient>
<clipPath id="clip0_624_5025">
<rect width="1920" height="1080" fill="white"/>
</clipPath>
</defs>
</svg>
