<svg width="69" height="69" viewBox="0 0 69 69" fill="none" xmlns="http://www.w3.org/2000/svg">
<g id="renewable-energy-saving-energy-environment-conservation-sustainability 1">
<g id="Renewable_energy">
<path id="Vector" d="M41.1284 20.7229C41.2099 20.5093 41.2383 20.2792 41.2111 20.0523C41.1838 19.8253 41.1018 19.6084 40.9721 19.4202C40.8424 19.232 40.6689 19.0782 40.4665 18.972C40.2642 18.8658 40.039 18.8104 39.8104 18.8105H30.6464C30.3232 18.8108 30.01 18.9219 29.7589 19.1252C29.5077 19.3285 29.3339 19.6118 29.2664 19.9278L25.3083 38.5631C25.2646 38.7682 25.2672 38.9805 25.3159 39.1845C25.3647 39.3885 25.4583 39.579 25.59 39.7422C25.7217 39.9054 25.8881 40.0371 26.0772 40.1279C26.2663 40.2186 26.4732 40.266 26.6829 40.2666H32.6665C32.8744 40.2666 33.0797 40.3126 33.2678 40.4012C33.4559 40.4898 33.622 40.6189 33.7544 40.7792C33.8868 40.9395 33.9821 41.1271 34.0335 41.3285C34.0849 41.53 34.0912 41.7403 34.0519 41.9444L32.5695 49.6261C32.2999 51.029 34.1988 51.7338 34.909 50.4953L44.3372 34.0674C44.4603 33.8528 44.5248 33.6097 44.5243 33.3624C44.5238 33.115 44.4583 32.8722 44.3344 32.6582C44.2104 32.4441 44.0324 32.2664 43.8181 32.1429C43.6038 32.0193 43.3609 31.9543 43.1135 31.9542H38.9062C38.6776 31.9543 38.4524 31.8989 38.2501 31.7926C38.0477 31.6864 37.8741 31.5327 37.7443 31.3445C37.6145 31.1564 37.5324 30.9395 37.5049 30.7126C37.4775 30.4857 37.5056 30.2556 37.5868 30.0419L41.1284 20.7229Z" fill="black"/>
<path id="Vector_2" d="M54.4644 54.4704C58.283 50.5689 60.8966 45.6497 61.9924 40.3016C63.0883 34.9534 62.6199 29.4028 60.6434 24.3139C54.9697 9.73223 38.4892 2.48453 23.9062 8.15951L24.7863 10.4209C38.1281 5.23106 53.1935 11.8575 58.3833 25.1939C60.191 29.8493 60.6185 34.9271 59.6146 39.8192C58.6108 44.7113 56.2181 49.2104 52.7232 52.7777L50.9982 51.0972C50.8166 50.9201 50.5866 50.8008 50.3372 50.7545C50.0878 50.7082 49.8303 50.7369 49.5972 50.8371C49.3642 50.9372 49.1661 51.1042 49.028 51.317C48.89 51.5298 48.8182 51.7788 48.8217 52.0325L48.8864 56.5997C48.8914 56.9389 49.0306 57.2623 49.2737 57.499C49.5167 57.7357 49.8436 57.8664 50.1829 57.8624L54.7501 57.8085C55.0036 57.8054 55.2505 57.7271 55.4595 57.5836C55.6686 57.4402 55.8303 57.2379 55.9244 57.0025C56.0185 56.767 56.0406 56.509 55.9879 56.2609C55.9353 56.0129 55.8103 55.7861 55.6287 55.6091L54.4644 54.4704Z" fill="black"/>
<path id="Vector_3" d="M24.5064 58.0857C20.6621 56.3982 17.285 53.8026 14.6651 50.522C12.0453 47.2413 10.2611 43.3737 9.46575 39.2513C8.67044 35.129 8.88783 30.8752 10.0992 26.8554C11.3106 22.8356 13.4798 19.17 16.4204 16.1736L17.9487 17.656C18.1302 17.8331 18.3603 17.9524 18.6097 17.9987C18.8591 18.045 19.1166 18.0163 19.3497 17.9161C19.5827 17.816 19.7808 17.6489 19.9188 17.4361C20.0569 17.2233 20.1287 16.9743 20.1251 16.7207L20.0605 12.1535C20.0584 11.9854 20.0231 11.8194 19.9568 11.665C19.8905 11.5105 19.7944 11.3707 19.674 11.2534C19.5536 11.1361 19.4112 11.0437 19.2551 10.9815C19.099 10.9193 18.9321 10.8884 18.764 10.8907L14.1968 10.9447C13.9412 10.9453 13.6917 11.0224 13.4803 11.166C13.2689 11.3096 13.1052 11.5131 13.0103 11.7504C12.9154 11.9877 12.8936 12.248 12.9478 12.4977C13.0019 12.7475 13.1295 12.9754 13.3141 13.1521L14.6793 14.4822C10.1316 19.1143 7.30974 25.1658 6.68463 31.627C6.05953 38.0882 7.66894 44.5684 11.2443 49.9864C14.8198 55.4044 20.1449 59.4325 26.3314 61.3987C32.5178 63.3648 39.1914 63.1501 45.2387 60.7904L44.3601 58.5304C41.1857 59.7725 37.7965 60.3728 34.3887 60.2965C30.9808 60.2201 27.6219 59.4687 24.5064 58.0857Z" fill="black"/>
</g>
</g>
</svg>
