<svg width="73" height="51" viewBox="0 0 73 51" fill="none" xmlns="http://www.w3.org/2000/svg">
<path id="Vector" d="M22.9473 38.8331C15.4624 31.4694 15.4624 19.5304 22.9473 12.1666M12.1047 49.5C-1.36823 36.2453 -1.36823 14.7548 12.1047 1.5M50.0526 38.8331C57.5375 31.4694 57.5375 19.5304 50.0526 12.1666M60.8951 49.5C74.3683 36.2453 74.3683 14.7548 60.8951 1.5M40.3333 25.5003C40.3333 27.5828 38.6172 29.2715 36.5 29.2715C34.3829 29.2715 32.6668 27.5828 32.6668 25.5003C32.6668 23.4174 34.3829 21.7291 36.5 21.7291C38.6172 21.7291 40.3333 23.4174 40.3333 25.5003Z" stroke="black" stroke-width="3" stroke-linecap="round" stroke-linejoin="round"/>
</svg>
