<svg width="69" height="69" viewBox="0 0 69 69" fill="none" xmlns="http://www.w3.org/2000/svg">
<g id="Frame">
<path id="Vector" d="M60.375 48.875C60.375 47.35 59.7692 45.8875 58.6909 44.8091C57.6125 43.7308 56.15 43.125 54.625 43.125H14.375C12.85 43.125 11.3875 43.7308 10.3091 44.8091C9.2308 45.8875 8.625 47.35 8.625 48.875V54.625C8.625 56.15 9.2308 57.6125 10.3091 58.6909C11.3875 59.7692 12.85 60.375 14.375 60.375H54.625C56.15 60.375 57.6125 59.7692 58.6909 58.6909C59.7692 57.6125 60.375 56.15 60.375 54.625V48.875Z" stroke="black" stroke-width="3" stroke-linecap="round" stroke-linejoin="round"/>
<path id="Vector_2" d="M17.25 43.125V37.375" stroke="black" stroke-width="3" stroke-linecap="round" stroke-linejoin="round"/>
<path id="Vector_3" d="M34.5 43.125V25.875" stroke="black" stroke-width="3" stroke-linecap="round" stroke-linejoin="round"/>
<path id="Vector_4" d="M34.5 25.875C39.2635 25.875 43.125 22.0135 43.125 17.25C43.125 12.4865 39.2635 8.625 34.5 8.625C29.7365 8.625 25.875 12.4865 25.875 17.25C25.875 22.0135 29.7365 25.875 34.5 25.875Z" stroke="black" stroke-width="3" stroke-linecap="round" stroke-linejoin="round"/>
</g>
</svg>
