<svg width="34" height="34" viewBox="0 0 34 34" fill="none" xmlns="http://www.w3.org/2000/svg">
<path d="M30.8494 0H3.2735C1.76671 0 0.450195 1.08419 0.450195 2.57328V30.2104C0.450195 31.7076 1.76671 33.0419 3.2735 33.0419H30.8413C32.3562 33.0419 33.4921 31.6988 33.4921 30.2104V2.57328C33.5009 1.08419 32.3562 0 30.8494 0ZM10.6924 27.542H5.95889V12.8244H10.6924V27.542ZM8.4894 10.5867H8.45547C6.94056 10.5867 5.95963 9.45897 5.95963 8.04731C5.95963 6.60985 6.96637 5.5087 8.51521 5.5087C10.064 5.5087 11.0118 6.60173 11.0457 8.04731C11.045 9.45897 10.064 10.5867 8.4894 10.5867ZM27.9922 27.542H23.2587V19.4947C23.2587 17.5668 22.5698 16.2495 20.8572 16.2495C19.5488 16.2495 18.7744 17.1346 18.43 17.9967C18.3009 18.3065 18.2662 18.7284 18.2662 19.1591V27.542H13.5327V12.8244H18.2662V14.8725C18.9551 13.8916 20.0312 12.4799 22.5351 12.4799C25.6424 12.4799 27.9929 14.5281 27.9929 18.9438L27.9922 27.542Z" fill="#231F20"/>
</svg>
