<svg width="28" height="27" viewBox="0 0 28 27" fill="none" xmlns="http://www.w3.org/2000/svg">
<path d="M17.3013 2.04326C19.1483 2.53897 20.8325 3.51177 22.1848 4.86404C23.5371 6.21632 24.5099 7.90049 25.0056 9.74753M16.1715 6.2493C17.2824 6.54433 18.2956 7.12778 19.1083 7.94053C19.921 8.75327 20.5045 9.76642 20.7995 10.8773M8.19501 13.5861C9.31556 15.9001 11.1867 17.7664 13.5036 18.881C13.6745 18.962 13.8635 18.997 14.0521 18.9827C14.2406 18.9683 14.4222 18.9052 14.5789 18.7994L17.9819 16.5262C18.1322 16.4242 18.306 16.362 18.4869 16.3453C18.6678 16.3287 18.8499 16.3581 19.0164 16.4309L25.3867 19.1669C25.6044 19.2575 25.7863 19.4172 25.9044 19.6213C26.0224 19.8255 26.0701 20.0628 26.0401 20.2967C25.8382 21.8726 25.069 23.3209 23.8764 24.3706C22.6838 25.4204 21.1496 25.9996 19.5609 26C14.6512 26 9.94255 24.0496 6.47088 20.578C2.9992 17.1063 1.04883 12.3977 1.04883 7.48797C1.04919 5.8992 1.62844 4.365 2.67819 3.17243C3.72795 1.97987 5.17628 1.21067 6.75217 1.00876C6.98607 0.978719 7.22336 1.0264 7.42751 1.14446C7.63165 1.26252 7.79133 1.44441 7.88194 1.66213L10.6179 8.04606C10.6891 8.20987 10.7188 8.38867 10.7046 8.5667C10.6903 8.74473 10.6325 8.91652 10.5362 9.06694L8.26307 12.5243C8.16187 12.6807 8.10247 12.8604 8.09056 13.0463C8.07864 13.2322 8.11461 13.418 8.19501 13.5861Z" stroke="#EB6E2E" stroke-width="2" stroke-linecap="round" stroke-linejoin="round"/>
</svg>
