<svg width="38" height="38" viewBox="0 0 38 38" fill="none" xmlns="http://www.w3.org/2000/svg">
<path id="Icon" d="M23.8023 2.51623C26.3881 3.21022 28.746 4.57214 30.6392 6.46533C32.5324 8.35851 33.8943 10.7163 34.5883 13.3022M22.2206 8.40469C23.7758 8.81773 25.1942 9.63456 26.3321 10.7724C27.4699 11.9102 28.2868 13.3287 28.6998 14.8839M11.0535 18.6761C12.6223 21.9158 15.2419 24.5287 18.4855 26.0891C18.7248 26.2024 18.9894 26.2514 19.2534 26.2314C19.5174 26.2113 19.7716 26.1229 19.991 25.9748L24.7551 22.7923C24.9656 22.6496 25.2088 22.5625 25.4621 22.5391C25.7153 22.5158 25.9704 22.557 26.2034 22.6589L35.1218 26.4893C35.4267 26.6162 35.6813 26.8397 35.8466 27.1255C36.0119 27.4113 36.0786 27.7435 36.0366 28.071C35.7539 30.2772 34.677 32.3049 33.0074 33.7746C31.3378 35.2442 29.1899 36.0552 26.9657 36.0557C20.0921 36.0557 13.5 33.3251 8.63969 28.4648C3.77934 23.6044 1.04883 17.0124 1.04883 10.1388C1.04933 7.91455 1.86028 5.76666 3.32994 4.09707C4.7996 2.42748 6.82726 1.3506 9.0335 1.06793C9.36096 1.02587 9.69318 1.09262 9.97898 1.2579C10.2648 1.42319 10.4883 1.67784 10.6152 1.98265L14.4455 10.9201C14.5452 11.1495 14.5868 11.3998 14.5669 11.649C14.5469 11.8983 14.466 12.1388 14.3312 12.3494L11.1488 17.1897C11.0071 17.4087 10.9239 17.6603 10.9072 17.9205C10.8906 18.1807 10.9409 18.4409 11.0535 18.6761Z" stroke="white" stroke-width="2" stroke-linecap="round" stroke-linejoin="round"/>
</svg>
