<?xml version="1.0"?>
<svg 
  xmlns="http://www.w3.org/2000/svg" 
  xmlns:xlink="http://www.w3.org/1999/xlink" version="1.1" preserveAspectRatio="xMinYMin meet" viewBox="0 0 1000 1010" width="100%" height="100%">
  <path fill="none" stroke="#000000" stroke-width="0.2%" d="M662,1010L691,1008L720,1005L749,998L776,990L803,978L829,965L853,949L876,932L898,912L917,891L935,868L951,843L964,817L975,791L984,763L990,735L994,706L995,680L1000,168L1000,166L999,152L997,138L994,123L990,110L984,96L978,83L970,71L961,59L951,49L941,39L929,30L917,22L904,16L890,10L877,6L862,3L848,1L834,0L180,0L180,0L166,1L151,3L137,6L123,10L110,16L97,22L85,30L73,39L62,49L53,59L44,71L36,83L29,96L24,110L19,123L16,138L14,152L14,162L0,668L0,677L1,706L5,735L11,763L20,791L31,817L45,843L60,868L78,891L98,912L119,932L142,949L166,965L192,978L219,990L247,998L275,1005L304,1008L333,1010L662,1010"/>  </svg>