<?xml version="1.0"?>
<svg 
  xmlns="http://www.w3.org/2000/svg" 
  xmlns:xlink="http://www.w3.org/1999/xlink" version="1.1" preserveAspectRatio="xMinYMin meet" viewBox="0 0 1000 2850" width="100%" height="100%">
  <path fill="none" stroke="#000000" stroke-width="0.2%" d="M150,2339L0,2849L766,2702L920,1788"/>
  <path fill="none" stroke="#000000" stroke-width="0.2%" d="M887,11L888,15L890,20L892,25L895,29L898,33L901,37L904,40L908,43L912,46L917,49L921,51L926,53L931,54L936,55L941,55L946,55L951,55L956,54L960,52L965,51L970,48L974,46L978,43L982,40L985,36L988,32L991,28L994,24L996,19L997,15L999,10L1000,5L1000,0L1000,0"/>  </svg>