<?xml version="1.0"?>
<svg 
  xmlns="http://www.w3.org/2000/svg" 
  xmlns:xlink="http://www.w3.org/1999/xlink" version="1.1" preserveAspectRatio="xMinYMin meet" viewBox="0 0 1000 1139" width="100%" height="100%">
  <path fill="none" stroke="#000000" stroke-width="0.2%" d="M143,186L145,183L238,183L269,223L284,230L282,248L293,266L299,266L307,281L315,284L330,327L327,380L342,408L342,408L355,431L370,435L381,448L392,471L405,481L403,491L412,494L419,504L419,512L435,526L439,522L401,468L398,453L406,456L420,480L441,498L440,505L468,528L472,539L468,546L475,555L529,581L552,578L568,590L584,597L602,600L605,603L617,617L617,619L638,638L655,646L659,644L657,639L666,633L674,637L676,646L680,675L669,690L659,695L654,709L654,718L662,721L658,727L651,734L652,745L669,763L688,809L731,838L734,865L723,925L724,957L708,994L707,1030L718,1032L711,1055L715,1061L707,1077L705,1075L701,1089L707,1106L702,1112L711,1135L726,1139L738,1136L745,1108L751,1111L768,1087L754,1072L769,1064L772,1051L780,1043L773,1036L772,1025L792,1026L794,1007L826,1004L836,990L822,965L849,974L861,964L896,919L898,896L927,876L945,875L952,868L967,834L969,800L998,768L1000,754L996,740L983,738L966,724L928,721L925,712L908,706L901,706L895,714L883,716L876,704L887,688L875,670L856,659L834,657L804,631L804,630L785,621L751,622L730,604L650,634L641,628L632,618L635,587L622,580L597,581L593,580L602,537L599,535L582,540L573,561L551,562L542,557L527,531L527,512L532,502L530,487L546,478L548,471L631,469L639,476L641,490L651,507L656,507L659,493L648,461L655,447L680,430L710,375L725,371L734,350L758,341L758,337L762,335L789,288L811,288L832,276L832,245L809,234L809,232L808,232L787,197L782,190L743,200L734,154L772,166L778,144L771,138L773,133L761,131L755,118L762,112L783,129L791,120L761,68L744,56L730,57L725,44L716,41L711,46L695,30L677,26L667,33L654,25L655,22L648,19L648,17L614,37L624,42L623,50L598,50L588,50L598,60L623,63L610,98L605,100L596,91L601,87L598,79L588,74L586,79L520,85L522,93L492,94L485,88L474,88L457,72L459,71L470,78L488,80L498,75L486,70L495,65L502,68L502,62L475,50L469,25L459,18L448,18L453,38L449,42L437,24L431,23L434,28L425,31L376,4L365,8L348,0L324,2L329,10L318,30L314,37L327,40L336,49L354,43L357,33L368,27L373,33L366,38L375,42L372,50L384,63L379,63L388,73L404,74L406,78L377,78L308,57L297,63L246,81L201,68L120,58L117,53L91,48L82,46L73,53L66,53L40,61L31,75L10,79L13,90L30,102L30,108L22,108L0,119L11,133L46,132L50,145L18,157L10,168L18,175L29,177L23,183L28,189L34,190L39,184L46,199L55,194L72,211L65,224L73,225L101,206L105,201L143,186"/>
  <path fill="none" stroke="#000000" stroke-width="0.2%" d="M638,347L630,350L634,336L622,332L613,341L609,366L603,367L600,355L608,332L610,330L630,330L624,324L587,321L583,323L570,323L600,301L607,307L607,303L612,303L617,311L623,310L626,324L654,330L662,340L653,342L648,336L647,353L642,356L638,347"/>
  <path fill="none" stroke="#000000" stroke-width="0.2%" d="M631,64L688,72L706,81L718,100L701,113L708,122L680,122L674,132L685,138L699,129L709,132L713,141L717,142L725,151L697,161L683,159L675,194L685,229L662,245L670,266L676,269L662,280L660,280L642,261L642,238L620,237L591,221L576,216L564,220L561,200L553,203L547,197L550,171L566,162L585,138L592,138L619,110L631,113L649,102L631,64"/>  </svg>