<?xml version="1.0"?>
<svg 
  xmlns="http://www.w3.org/2000/svg" 
  xmlns:xlink="http://www.w3.org/1999/xlink" version="1.1" preserveAspectRatio="xMinYMin meet" viewBox="0 0 1351 1000" width="100%" height="100%">
  <path fill="none" stroke="#000000" stroke-width="0.2%" d="M1232,954L1276,801L1337,709L1351,610L1326,500L1222,401L1194,327L1114,284L1076,145L1024,121L991,0L955,45L938,202L900,239L751,145L782,56L696,32L573,70L542,124L553,152L517,140L496,167L484,117L432,111L356,189L338,184L309,215L310,249L265,303L123,336L23,412L0,522L92,730L70,824L163,858L234,813L355,808L428,753L611,723L706,763L737,838L779,862L874,857L899,945L949,983L1012,1000L1063,962L1101,1000L1156,969L1232,954"/>  </svg>