<?xml version="1.0"?>
<svg 
  xmlns="http://www.w3.org/2000/svg" 
  xmlns:xlink="http://www.w3.org/1999/xlink" version="1.1" preserveAspectRatio="xMinYMin meet" viewBox="0 0 1000 1966" width="100%" height="100%">
  <path fill="none" stroke="#000000" stroke-width="0.2%" d="M507,1965L1000,1965L1000,740L838,286L837,284L822,249L805,216L785,184L762,154L736,126L709,101L679,78L647,58L614,40L579,26L543,15L506,7L469,2L431,0L394,2L356,7L320,15L284,26L249,40L216,58L184,78L154,101L126,126L101,154L78,184L58,216L40,249L26,284L15,320L7,356L2,394L0,431L2,469L7,506L15,543L26,579L40,614L58,647L78,679L101,709L126,736L154,762L161,768L165,771L180,785L194,800L207,816L218,834L227,852L235,871L241,890L246,910L248,930L249,951L248,971L246,992L241,1012L235,1031L227,1050L218,1068L207,1086L194,1102L180,1117L174,1123L162,1134L134,1166L108,1199L85,1235L65,1273L49,1312L36,1353L27,1394L22,1436L20,1479L22,1521L27,1563L36,1605L49,1645L65,1684L85,1722L108,1758L134,1791L162,1823L194,1851L227,1877L263,1900L301,1920L340,1936L381,1949L422,1958L464,1964L507,1965"/>  </svg>