<?xml version="1.0"?>
<svg 
  xmlns="http://www.w3.org/2000/svg" 
  xmlns:xlink="http://www.w3.org/1999/xlink" version="1.1" preserveAspectRatio="xMinYMin meet" viewBox="0 0 1597 1000" width="100%" height="100%">
  <path fill="none" stroke="#000000" stroke-width="0.2%" d="M302,70L289,85L276,81L270,95L256,100L251,110L238,118L231,137L179,178L174,179L175,189L179,191L177,205L185,204L179,215L198,219L220,206L222,210L226,228L234,237L234,250L257,242L266,212L280,200L270,192L268,193L268,169L302,147L299,141L304,130L321,127L332,139L298,166L299,191L311,195L313,200L348,192L355,195L354,202L317,207L318,217L324,217L321,233L309,225L302,226L297,235L299,255L293,253L286,260L268,257L244,267L232,260L223,263L208,255L208,249L216,225L199,234L198,248L202,255L202,261L190,273L175,273L165,292L150,297L140,311L122,309L125,320L100,320L103,328L109,329L128,342L131,353L122,370L74,367L65,374L69,384L64,412L70,414L68,427L80,426L95,436L121,430L137,413L134,407L142,394L160,385L160,379L160,371L167,368L183,373L194,366L203,360L214,364L222,379L256,400L259,419L267,410L265,401L270,406L277,399L248,381L231,363L230,351L245,349L259,368L284,383L284,397L291,404L308,431L313,433L311,423L321,422L321,417L318,415L314,405L324,392L336,394L343,411L346,424L366,435L375,429L389,436L413,429L413,436L413,448L405,461L398,477L382,480L381,475L372,475L358,481L328,474L296,465L288,470L288,482L280,485L256,477L251,468L223,461L211,454L222,443L212,428L203,428L147,431L119,444L91,439L84,453L65,466L57,494L35,507L5,561L10,567L12,582L8,600L0,611L8,620L6,624L6,629L14,635L16,634L19,640L33,655L36,665L47,672L77,691L112,686L120,689L145,678L151,677L157,676L172,678L183,693L200,689L210,695L210,709L209,718L209,719L203,731L221,756L228,764L230,770L230,773L242,809L225,859L247,902L247,906L252,941L262,952L276,979L273,988L277,1000L327,999L345,993L367,973L385,949L388,935L388,926L408,914L403,880L447,845L448,806L435,773L439,761L456,738L503,694L531,646L527,633L482,645L473,640L468,628L510,618L538,604L544,597L559,594L581,577L580,570L595,555L596,550L588,541L562,526L552,537L531,537L508,500L506,488L518,486L521,487L532,506L549,516L571,512L578,523L611,528L647,526L660,540L669,549L667,551L678,563L689,560L692,550L697,551L700,598L707,604L714,630L732,663L751,646L755,604L801,570L814,553L821,557L831,555L835,546L841,548L847,563L864,583L862,600L871,603L881,590L889,597L897,647L894,662L908,675L917,702L938,713L934,687L923,678L911,669L901,646L908,621L950,650L978,635L974,607L950,579L953,571L967,558L1003,555L1028,549L1050,532L1081,481L1055,447L1063,435L1081,425L1068,421L1054,426L1043,415L1043,410L1075,392L1079,397L1071,413L1094,402L1103,405L1098,419L1111,422L1109,451L1125,447L1135,436L1126,415L1119,403L1136,393L1143,379L1153,370L1163,377L1177,370L1217,321L1218,299L1226,284L1221,269L1212,262L1178,257L1235,208L1282,208L1288,202L1314,209L1348,179L1372,176L1369,208L1357,221L1345,224L1337,236L1336,258L1345,297L1355,287L1358,276L1369,274L1368,264L1385,258L1382,249L1390,231L1393,225L1384,221L1396,200L1414,202L1431,192L1448,200L1473,179L1506,168L1516,171L1518,163L1507,147L1525,137L1528,132L1550,132L1559,142L1597,121L1587,115L1575,116L1571,112L1564,114L1558,105L1550,105L1510,82L1451,73L1440,88L1423,80L1421,81L1387,78L1380,83L1366,77L1369,68L1360,61L1312,63L1304,54L1297,53L1287,43L1223,34L1209,51L1091,19L1086,21L1086,26L1029,22L1008,24L999,0L756,23L759,34L728,46L687,33L670,33L663,49L651,56L640,86L630,81L605,76L601,79L602,83L557,99L549,89L511,104L476,94L476,119L405,82L345,65L345,65L328,61L314,74L302,70"/>
  <path fill="none" stroke="#000000" stroke-width="0.2%" d="M512,414L520,394L508,383L503,365L496,360L502,340L542,334L557,353L538,350L532,353L533,372L542,375L543,390L543,404L552,410L551,423L552,429L534,431L514,422L512,414"/>
  <path fill="none" stroke="#000000" stroke-width="0.2%" d="M455,386L429,392L407,382L393,382L376,391L356,389L351,383L348,378L356,366L364,351L368,341L403,345L405,346L407,341L425,336L432,344L418,353L454,375L455,386"/>  </svg>