<?xml version="1.0"?>
<svg 
  xmlns="http://www.w3.org/2000/svg" 
  xmlns:xlink="http://www.w3.org/1999/xlink" version="1.1" preserveAspectRatio="xMinYMin meet" viewBox="0 0 1381 1000" width="100%" height="100%">
  <path fill="none" stroke="#000000" stroke-width="0.2%" d="M619,26L614,24L409,70L400,65L256,95L259,130L200,130L170,161L119,174L166,196L184,217L153,239L96,239L8,267L0,284L85,317L35,342L109,356L78,369L109,386L153,394L222,372L274,381L328,400L328,413L405,502L394,518L419,526L401,555L516,639L494,692L481,698L435,753L453,767L446,801L472,823L475,868L562,986L627,981L631,1000L686,995L702,953L686,922L716,913L777,816L787,816L789,809L839,804L843,785L869,788L903,736L929,723L972,720L1060,697L1167,639L1163,575L1089,542L1122,494L1150,510L1189,501L1196,484L1146,465L1157,453L1180,455L1190,420L1213,426L1214,400L1177,388L1142,356L1224,345L1245,346L1244,325L1191,321L1191,295L1186,293L1161,303L1179,253L1207,237L1223,171L1380,108L1314,90L1259,94L1245,115L1175,116L1151,132L1129,44L1095,35L1080,38L1056,14L1029,5L775,0L751,4L751,43L667,15L619,26"/>  </svg>