<?xml version="1.0"?>
<svg 
  xmlns="http://www.w3.org/2000/svg" 
  xmlns:xlink="http://www.w3.org/1999/xlink" version="1.1" preserveAspectRatio="xMinYMin meet" viewBox="0 0 2070 1000" width="100%" height="100%">
  <path fill="none" stroke="#000000" stroke-width="0.2%" d="M988,999L1798,726L1798,726L1800,726L1801,725L1802,724L1804,723L1805,722L2064,463L2065,462L2066,460L2067,459L2068,457L2068,456L2069,454L2069,453L2069,451L2069,450L2069,448L2069,446L2069,445L2068,443L2068,442L2067,440L2066,439L2065,438L2064,437L2064,436L1707,97L1707,97L1706,96L1705,96L1704,96L1704,95L1703,95L1702,95L1701,95L1701,95L1700,95L1699,95L1698,95L1689,97L1688,98L1688,98L1687,98L1686,98L1685,98L1684,97L1684,97L1683,97L1682,96L1681,96L1681,96L1553,4L1553,3L1552,2L1550,2L1549,1L1547,1L1546,0L1544,0L1543,0L1541,0L1539,0L1538,1L1536,1L1535,2L1533,2L1532,3L1531,4L1529,5L1528,7L1527,8L1526,9L1526,11L1525,11L1489,96L1489,96L1488,98L1487,99L1486,100L1485,101L1484,103L1483,104L1482,104L1480,105L1479,106L1477,106L1475,107L1474,107L1472,107L1472,107L1155,107L1153,107L1152,107L1150,108L1149,108L1147,109L1146,109L1144,110L1143,111L1142,112L1141,114L1140,115L1139,116L1138,118L1138,119L1137,121L1137,122L1137,124L1137,125L1137,127L1137,128L1153,240L1153,240L1153,241L1153,242L1153,243L1152,243L1152,244L1152,245L1152,246L1151,246L1151,247L1150,248L1149,248L1149,249L1148,249L1147,249L1147,250L1146,250L1145,250L1144,250L1143,250L1143,250L1142,250L1141,250L1140,250L1140,249L1139,249L1138,249L1138,248L1137,248L1136,247L1136,246L1136,246L1054,118L1054,117L1053,116L1052,115L1051,114L1049,113L1048,112L1046,111L1045,111L1043,110L1042,110L1040,110L1039,109L1037,110L1035,110L1034,110L1032,111L1031,111L1029,112L1028,113L1027,114L1025,115L902,238L902,238L901,239L900,240L898,241L897,242L895,242L894,243L892,243L891,243L889,244L887,243L886,243L884,243L883,242L881,242L880,241L879,240L732,143L731,142L730,141L728,141L727,140L725,140L724,140L722,140L720,140L719,140L717,140L716,141L714,141L713,142L711,143L710,144L709,145L708,146L707,147L706,149L576,363L575,364L574,365L573,366L572,367L571,368L570,369L568,370L567,371L565,371L563,371L562,372L560,372L559,372L557,371L555,371L554,371L552,370L551,369L550,368L548,367L547,366L546,365L545,364L544,362L543,361L543,360L542,358L542,356L542,356L517,175L517,174L517,173L516,171L515,170L515,168L514,167L513,166L512,165L511,163L509,162L508,162L507,161L219,21L218,20L217,20L215,19L214,19L212,19L211,19L209,19L207,19L206,19L204,20L203,20L201,21L200,22L199,23L197,24L196,25L195,27L194,28L194,29L193,31L193,32L192,34L192,36L192,37L192,39L192,40L193,42L193,44L194,45L244,160L245,161L245,163L246,164L246,166L246,167L246,169L246,171L245,172L245,174L244,175L243,177L243,178L242,179L240,181L239,182L238,183L237,184L235,184L234,185L232,185L231,186L229,186L227,186L226,186L224,186L223,185L221,185L220,184L219,184L113,131L112,131L111,130L109,130L108,129L106,129L104,129L103,129L101,129L100,130L98,130L97,131L95,131L94,132L92,133L91,134L90,136L89,137L88,138L88,140L87,141L86,143L86,144L86,146L86,148L86,149L86,151L86,152L87,154L88,155L88,155L122,229L123,229L123,231L124,232L124,234L124,235L124,237L124,239L124,240L124,242L123,243L123,245L122,246L121,248L120,249L119,250L118,251L116,252L115,253L114,254L112,254L111,255L109,255L107,256L106,256L104,256L102,255L101,255L101,255L23,234L23,234L22,233L20,233L19,233L17,233L15,233L14,234L12,234L11,235L9,236L8,237L7,238L5,239L4,240L3,241L2,242L2,244L1,245L1,247L0,249L0,250L0,252L0,253L0,255L1,257L1,258L2,260L2,261L3,262L4,264L5,265L5,265L28,288L28,288L29,289L30,289L30,290L30,291L31,291L31,292L31,293L31,294L31,294L31,295L31,296L31,297L31,298L30,298L30,299L30,300L29,300L28,301L28,302L27,302L27,303L26,303L25,303L25,303L21,304L20,305L19,305L17,306L16,307L15,308L13,309L12,310L11,312L10,313L10,314L9,316L9,317L8,319L8,321L8,322L8,324L8,325L9,327L9,329L10,330L10,331L11,333L12,334L13,335L15,336L16,337L17,338L19,339L20,340L22,340L23,340L25,341L26,341L26,341L385,341L385,341L386,341L386,341L387,341L388,341L389,342L389,342L390,342L391,343L391,343L392,344L392,345L393,345L393,346L393,347L394,348L394,348L394,349L394,350L394,351L394,352L394,352L393,353L393,354L393,355L392,355L392,356L391,357L391,357L390,358L390,358L319,405L318,405L317,406L316,408L315,409L314,410L313,411L312,413L311,414L311,416L311,417L310,419L310,421L310,422L311,424L311,425L311,427L312,429L313,430L314,431L315,433L316,434L317,435L318,436L320,437L321,438L322,438L376,461L376,461L377,461L377,462L378,462L379,463L379,464L380,464L380,465L380,466L381,466L381,467L381,468L381,469L381,469L381,470L381,471L381,472L381,473L380,473L380,474L380,475L379,475L379,476L378,477L377,477L377,478L376,478L375,478L374,478L374,479L373,479L121,511L120,511L118,511L117,512L115,513L114,513L112,514L111,515L110,516L109,517L108,519L107,520L106,522L106,523L105,525L105,526L104,528L104,529L104,531L105,533L105,534L106,536L106,537L107,539L108,540L109,541L110,542L111,544L112,545L114,545L115,546L117,547L118,547L119,547L419,613L419,613L420,614L420,614L421,614L422,615L422,615L423,616L424,616L424,617L425,618L425,619L425,619L425,620L426,621L426,622L426,622L426,623L426,624L425,625L425,626L425,626L425,627L424,628L265,855L265,856L264,856L264,857L264,858L263,859L263,860L263,860L263,861L263,862L264,863L264,864L264,864L265,865L265,866L265,866L266,867L267,868L267,868L268,868L269,869L269,869L270,869L271,870L979,1000L979,1000L980,1000L982,1000L984,1000L985,1000L987,999L988,999"/>  </svg>