<?xml version="1.0"?>
<svg 
  xmlns="http://www.w3.org/2000/svg" 
  xmlns:xlink="http://www.w3.org/1999/xlink" version="1.1" preserveAspectRatio="xMinYMin meet" viewBox="0 0 1000 1000" width="100%" height="100%">
  <path fill="none" stroke="#000000" stroke-width="0.2%" d="M550,900L450,900L450,100L550,100L550,900"/>
  <path fill="none" stroke="#000000" stroke-width="0.2%" d="M1000,500L998,456L992,413L983,371L970,329L953,289L933,250L910,213L883,179L854,146L821,117L787,90L750,67L711,47L671,30L629,17L587,8L544,2L500,0L456,2L413,8L371,17L329,30L289,47L250,67L213,90L179,117L146,146L117,179L90,213L67,250L47,289L30,329L17,371L8,413L2,456L0,500L2,544L8,587L17,629L30,671L47,711L67,750L90,787L117,821L146,854L179,883L213,910L250,933L289,953L329,970L371,983L413,992L456,998L500,1000L544,998L587,992L629,983L671,970L711,953L750,933L787,910L821,883L854,854L883,821L910,787L933,750L953,711L970,671L983,629L992,587L998,544L1000,500"/>  </svg>