<?xml version="1.0"?>
<svg 
  xmlns="http://www.w3.org/2000/svg" 
  xmlns:xlink="http://www.w3.org/1999/xlink" version="1.1" preserveAspectRatio="xMinYMin meet" viewBox="0 0 3509 1000" width="100%" height="100%">
  <path fill="none" stroke="#000000" stroke-width="0.2%" d="M3492,820L1365,111L1364,110L1362,110L1360,110L527,0L526,0L525,0L524,0L523,0L522,0L521,1L520,1L519,2L518,2L517,3L517,3L4,494L4,494L3,495L2,496L2,497L1,498L1,499L0,500L0,501L0,502L0,503L0,504L0,505L0,506L1,507L1,508L2,509L2,510L3,511L4,511L4,512L5,513L6,513L7,514L8,514L9,515L10,515L11,515L12,515L13,515L14,515L15,515L15,514L882,271L883,271L884,270L885,270L885,269L886,269L887,268L888,267L888,266L889,265L890,264L890,263L890,262L890,261L891,260L891,259L891,258L890,257L890,256L890,256L881,225L881,224L881,223L881,222L881,221L881,220L881,219L881,218L882,217L882,216L883,215L883,214L884,213L885,213L885,212L886,211L887,211L888,210L889,210L890,210L891,209L892,209L893,209L894,209L895,209L896,210L897,210L2825,852L2825,852L2826,853L2827,853L2827,853L2962,933L2963,934L2964,935L2965,935L2965,936L2966,937L2967,938L2967,939L2968,940L2968,941L2968,942L2968,943L2968,944L2968,945L2968,946L2968,947L2968,948L2967,949L2967,950L2967,950L2948,982L2948,982L2947,983L2947,984L2947,985L2946,986L2946,987L2946,988L2946,989L2946,990L2947,991L2947,992L2947,993L2948,994L2948,995L2949,996L2950,996L2951,997L2951,998L2952,998L2953,999L2954,999L2955,1000L2956,1000L2957,1000L2958,1000L2960,1000L2961,1000L2961,1000L3490,866L3490,866L3492,866L3494,865L3496,864L3498,863L3500,861L3501,860L3503,858L3504,857L3505,855L3506,853L3507,851L3508,849L3508,847L3508,845L3508,843L3508,841L3508,839L3508,836L3507,834L3506,832L3505,831L3504,829L3503,827L3501,826L3500,824L3498,823L3496,822L3494,821L3492,820L3492,820"/>  </svg>