<?xml version="1.0"?>
<svg 
  xmlns="http://www.w3.org/2000/svg" 
  xmlns:xlink="http://www.w3.org/1999/xlink" version="1.1" preserveAspectRatio="xMinYMin meet" viewBox="0 0 1000 1777" width="100%" height="100%">
  <path fill="none" stroke="#000000" stroke-width="0.2%" d="M969,1393L980,1393L980,1398L969,1398L969,1393"/>
  <path fill="none" stroke="#000000" stroke-width="0.2%" d="M886,1393L898,1393L898,1398L886,1398L886,1393"/>
  <path fill="none" stroke="#000000" stroke-width="0.2%" d="M704,1486L693,1486L693,1481L704,1481L704,1486"/>
  <path fill="none" stroke="#000000" stroke-width="0.2%" d="M135,1486L123,1486L123,1481L135,1481L135,1486"/>
  <path fill="none" stroke="#000000" stroke-width="0.2%" d="M419,1486L408,1486L408,1481L419,1481L419,1486"/>
  <path fill="none" stroke="#000000" stroke-width="0.2%" d="M419,1626L408,1626L408,1621L419,1621L419,1626"/>
  <path fill="none" stroke="#000000" stroke-width="0.2%" d="M135,1626L123,1626L123,1621L135,1621L135,1626"/>
  <path fill="none" stroke="#000000" stroke-width="0.2%" d="M704,1626L693,1626L693,1621L704,1621L704,1626"/>
  <path fill="none" stroke="#000000" stroke-width="0.2%" d="M748,1702L736,1702L736,1698L748,1698L748,1702"/>
  <path fill="none" stroke="#000000" stroke-width="0.2%" d="M43,1702L32,1702L32,1698L43,1698L43,1702"/>
  <path fill="none" stroke="#000000" stroke-width="0.2%" d="M395,1702L384,1702L384,1698L395,1698L395,1702"/>
  <path fill="none" stroke="#000000" stroke-width="0.2%" d="M865,1436L870,1436L870,1447L865,1447L865,1436"/>
  <path fill="none" stroke="#000000" stroke-width="0.2%" d="M865,1673L870,1673L870,1685L865,1685L865,1673"/>
  <path fill="none" stroke="#000000" stroke-width="0.2%" d="M48,509L53,509L53,520L48,520L48,509"/>
  <path fill="none" stroke="#000000" stroke-width="0.2%" d="M48,1257L53,1257L53,1268L48,1268L48,1257"/>
  <path fill="none" stroke="#000000" stroke-width="0.2%" d="M48,883L53,883L53,894L48,894L48,883"/>
  <path fill="none" stroke="#000000" stroke-width="0.2%" d="M90,883L95,883L95,894L90,894L90,883"/>
  <path fill="none" stroke="#000000" stroke-width="0.2%" d="M90,1257L95,1257L95,1268L90,1268L90,1257"/>
  <path fill="none" stroke="#000000" stroke-width="0.2%" d="M90,509L95,509L95,520L90,520L90,509"/>
  <path fill="none" stroke="#000000" stroke-width="0.2%" d="M693,951L704,951L704,955L693,955L693,951"/>
  <path fill="none" stroke="#000000" stroke-width="0.2%" d="M693,1080L704,1080L704,1085L693,1085L693,1080"/>
  <path fill="none" stroke="#000000" stroke-width="0.2%" d="M408,951L419,951L419,955L408,955L408,951"/>
  <path fill="none" stroke="#000000" stroke-width="0.2%" d="M135,1210L135,1215L123,1215L123,1210L135,1210"/>
  <path fill="none" stroke="#000000" stroke-width="0.2%" d="M693,562L704,562L704,567L693,567L693,562"/>
  <path fill="none" stroke="#000000" stroke-width="0.2%" d="M693,821L704,821L704,826L693,826L693,821"/>
  <path fill="none" stroke="#000000" stroke-width="0.2%" d="M123,692L135,692L135,696L123,696L123,692"/>
  <path fill="none" stroke="#000000" stroke-width="0.2%" d="M408,562L419,562L419,567L408,567L408,562"/>
  <path fill="none" stroke="#000000" stroke-width="0.2%" d="M408,821L419,821L419,826L408,826L408,821"/>
  <path fill="none" stroke="#000000" stroke-width="0.2%" d="M408,692L419,692L419,696L408,696L408,692"/>
  <path fill="none" stroke="#000000" stroke-width="0.2%" d="M123,821L135,821L135,826L123,826L123,821"/>
  <path fill="none" stroke="#000000" stroke-width="0.2%" d="M123,562L135,562L135,567L123,567L123,562"/>
  <path fill="none" stroke="#000000" stroke-width="0.2%" d="M693,692L704,692L704,696L693,696L693,692"/>
  <path fill="none" stroke="#000000" stroke-width="0.2%" d="M123,1080L135,1080L135,1085L123,1085L123,1080"/>
  <path fill="none" stroke="#000000" stroke-width="0.2%" d="M135,951L135,955L123,955L123,951L135,951"/>
  <path fill="none" stroke="#000000" stroke-width="0.2%" d="M408,1080L419,1080L419,1085L408,1085L408,1080"/>
  <path fill="none" stroke="#000000" stroke-width="0.2%" d="M693,1210L704,1210L704,1215L693,1215L693,1210"/>
  <path fill="none" stroke="#000000" stroke-width="0.2%" d="M408,1210L419,1210L419,1215L408,1215L408,1210"/>
  <path fill="none" stroke="#000000" stroke-width="0.2%" d="M312,674L311,674L311,640L345,640L345,640L312,640L312,674"/>
  <path fill="none" stroke="#000000" stroke-width="0.2%" d="M311,1103L312,1103L312,1137L345,1137L345,1137L311,1137L311,1103"/>
  <path fill="none" stroke="#000000" stroke-width="0.2%" d="M865,1115L870,1115L870,1126L865,1126L865,1115"/>
  <path fill="none" stroke="#000000" stroke-width="0.2%" d="M865,650L870,650L870,662L865,662L865,650"/>
  <path fill="none" stroke="#000000" stroke-width="0.2%" d="M870,103L865,103L865,92L870,92L870,103"/>
  <path fill="none" stroke="#000000" stroke-width="0.2%" d="M870,341L865,341L865,330L870,330L870,341"/>
  <path fill="none" stroke="#000000" stroke-width="0.2%" d="M384,74L395,74L395,79L384,79L384,74"/>
  <path fill="none" stroke="#000000" stroke-width="0.2%" d="M32,74L43,74L43,79L32,79L32,74"/>
  <path fill="none" stroke="#000000" stroke-width="0.2%" d="M736,74L748,74L748,79L736,79L736,74"/>
  <path fill="none" stroke="#000000" stroke-width="0.2%" d="M505,1L505,1L505,1L505,1L505,1L505,1L505,1L505,0L505,0L505,0L505,0L505,0L505,0L504,0L504,0L504,0L504,0L504,0L504,0L496,0L496,0L496,0L496,0L496,0L496,0L496,0L495,0L495,0L495,0L495,0L495,0L495,0L495,1L495,1L495,1L495,1L495,1L495,1L495,1L495,3L114,3L114,1L114,1L114,1L114,1L114,1L114,1L113,1L113,0L113,0L113,0L113,0L113,0L113,0L113,0L113,0L113,0L113,0L113,0L113,0L112,0L105,0L105,0L104,0L104,0L104,0L104,0L104,0L104,0L104,0L104,0L104,0L104,0L104,0L104,1L104,1L103,1L103,1L103,1L103,1L103,1L103,3L8,3L8,3L7,3L7,4L6,4L6,4L6,4L5,4L5,4L5,5L4,5L4,5L4,6L4,6L4,6L4,7L3,7L3,8L3,8L3,8L3,94L1,94L1,94L1,94L1,94L1,94L1,94L1,94L1,94L0,95L0,95L0,95L0,95L0,95L0,95L0,95L0,95L0,95L0,95L0,95L0,95L0,103L0,103L0,104L0,104L0,104L0,104L0,104L0,104L0,104L0,104L0,104L0,104L0,104L1,104L1,104L1,104L1,105L1,105L1,105L1,105L3,105L3,342L1,342L1,342L1,342L1,342L1,342L1,342L1,342L0,342L0,342L0,342L0,342L0,343L0,343L0,343L0,343L0,343L0,343L0,343L0,343L0,351L0,351L0,351L0,351L0,352L0,352L0,352L0,352L0,352L0,352L0,352L0,352L1,352L1,352L1,352L1,352L1,352L1,352L1,352L3,352L3,679L1,679L1,679L1,679L1,679L1,679L1,679L1,679L0,679L0,679L0,679L0,679L0,679L0,679L0,679L0,679L0,680L0,680L0,680L0,680L0,688L0,688L0,688L0,688L0,688L0,688L0,688L0,688L0,689L0,689L0,689L0,689L1,689L1,689L1,689L1,689L1,689L1,689L1,689L1,689L3,689L3,883L1,883L1,883L1,883L1,883L1,883L1,883L1,883L0,883L0,884L0,884L0,884L0,884L0,884L0,884L0,884L0,884L0,884L0,884L0,884L0,892L0,892L0,893L0,893L0,893L0,893L0,893L0,893L0,893L0,893L0,893L0,893L1,893L1,893L1,893L1,893L1,893L1,894L1,894L1,894L3,894L3,1088L1,1088L1,1088L1,1088L1,1088L1,1088L1,1088L1,1088L0,1088L0,1088L0,1088L0,1088L0,1088L0,1088L0,1088L0,1089L0,1089L0,1089L0,1089L0,1089L0,1097L0,1097L0,1097L0,1097L0,1097L0,1097L0,1097L0,1098L0,1098L0,1098L0,1098L0,1098L1,1098L1,1098L1,1098L1,1098L1,1098L1,1098L1,1098L1,1098L3,1098L3,1425L1,1425L1,1425L1,1425L1,1425L1,1425L1,1425L1,1425L0,1425L0,1425L0,1425L0,1425L0,1425L0,1425L0,1425L0,1425L0,1425L0,1425L0,1426L0,1426L0,1434L0,1434L0,1434L0,1434L0,1434L0,1434L0,1434L0,1434L0,1434L0,1434L0,1434L0,1435L1,1435L1,1435L1,1435L1,1435L1,1435L1,1435L1,1435L3,1435L3,1672L1,1672L1,1672L1,1672L1,1672L1,1672L1,1672L1,1672L0,1672L0,1673L0,1673L0,1673L0,1673L0,1673L0,1673L0,1673L0,1673L0,1673L0,1673L0,1673L0,1681L0,1681L0,1682L0,1682L0,1682L0,1682L0,1682L0,1682L0,1682L0,1682L0,1682L0,1682L1,1682L1,1682L1,1682L1,1682L1,1682L1,1682L1,1682L1,1682L3,1682L3,1769L3,1769L3,1769L3,1770L4,1770L4,1770L4,1771L4,1771L4,1771L4,1772L5,1772L5,1772L5,1773L6,1773L6,1773L6,1773L7,1773L7,1773L8,1773L8,1773L103,1773L103,1776L103,1776L103,1776L103,1776L103,1776L104,1776L104,1776L104,1776L104,1776L104,1776L104,1777L104,1777L104,1777L104,1777L104,1777L104,1777L104,1777L104,1777L105,1777L105,1777L113,1777L113,1777L113,1777L113,1777L113,1777L113,1777L113,1777L113,1777L113,1777L113,1777L113,1776L113,1776L113,1776L113,1776L114,1776L114,1776L114,1776L114,1776L114,1776L114,1776L114,1773L495,1773L495,1776L495,1776L495,1776L495,1776L495,1776L495,1776L495,1776L495,1776L495,1776L495,1776L495,1777L495,1777L495,1777L496,1777L496,1777L496,1777L496,1777L496,1777L496,1777L504,1777L504,1777L504,1777L504,1777L504,1777L504,1777L505,1777L505,1777L505,1777L505,1776L505,1776L505,1776L505,1776L505,1776L505,1776L505,1776L505,1776L505,1776L505,1776L505,1773L886,1773L886,1776L886,1776L886,1776L886,1776L886,1776L886,1776L887,1776L887,1776L887,1776L887,1776L887,1777L887,1777L887,1777L887,1777L887,1777L887,1777L887,1777L887,1777L888,1777L895,1777L896,1777L896,1777L896,1777L896,1777L896,1777L896,1777L896,1777L896,1777L896,1776L896,1776L896,1776L896,1776L896,1776L897,1776L897,1776L897,1776L897,1776L897,1776L897,1773L992,1773L992,1773L993,1773L993,1773L994,1773L994,1773L994,1773L995,1773L995,1772L995,1772L996,1772L996,1771L996,1771L996,1771L996,1770L996,1770L997,1770L997,1769L997,1769L997,1682L999,1682L999,1682L999,1682L999,1682L999,1682L999,1682L999,1682L1000,1682L1000,1682L1000,1682L1000,1682L1000,1682L1000,1682L1000,1682L1000,1682L1000,1682L1000,1682L1000,1681L1000,1681L1000,1673L1000,1673L1000,1673L1000,1673L1000,1673L1000,1673L1000,1673L1000,1673L1000,1673L1000,1673L1000,1673L1000,1672L999,1672L999,1672L999,1672L999,1672L999,1672L999,1672L999,1672L999,1672L997,1672L997,1435L999,1435L999,1435L999,1435L999,1435L999,1435L999,1435L999,1435L1000,1435L1000,1434L1000,1434L1000,1434L1000,1434L1000,1434L1000,1434L1000,1434L1000,1434L1000,1434L1000,1434L1000,1434L1000,1426L1000,1426L1000,1425L1000,1425L1000,1425L1000,1425L1000,1425L1000,1425L1000,1425L1000,1425L1000,1425L1000,1425L999,1425L999,1425L999,1425L999,1425L999,1425L999,1425L999,1425L997,1425L997,1098L999,1098L999,1098L999,1098L999,1098L999,1098L999,1098L999,1098L1000,1098L1000,1098L1000,1098L1000,1098L1000,1098L1000,1097L1000,1097L1000,1097L1000,1097L1000,1097L1000,1097L1000,1097L1000,1089L1000,1089L1000,1089L1000,1089L1000,1089L1000,1088L1000,1088L1000,1088L1000,1088L1000,1088L1000,1088L1000,1088L999,1088L999,1088L999,1088L999,1088L999,1088L999,1088L999,1088L999,1088L997,1088L997,894L999,894L999,894L999,893L999,893L999,893L999,893L999,893L1000,893L1000,893L1000,893L1000,893L1000,893L1000,893L1000,893L1000,893L1000,893L1000,893L1000,892L1000,892L1000,884L1000,884L1000,884L1000,884L1000,884L1000,884L1000,884L1000,884L1000,884L1000,884L1000,884L1000,883L999,883L999,883L999,883L999,883L999,883L999,883L999,883L999,883L997,883L997,689L999,689L999,689L999,689L999,689L999,689L999,689L999,689L1000,689L1000,689L1000,689L1000,689L1000,688L1000,688L1000,688L1000,688L1000,688L1000,688L1000,688L1000,688L1000,688L1000,680L1000,680L1000,680L1000,680L1000,680L1000,679L1000,679L1000,679L1000,679L1000,679L1000,679L1000,679L1000,679L999,679L999,679L999,679L999,679L999,679L999,679L999,679L997,679L997,352L999,352L999,352L999,352L999,352L999,352L999,352L999,352L1000,352L1000,352L1000,352L1000,352L1000,352L1000,352L1000,352L1000,352L1000,351L1000,351L1000,351L1000,351L1000,343L1000,343L1000,343L1000,343L1000,343L1000,343L1000,343L1000,343L1000,342L1000,342L1000,342L1000,342L999,342L999,342L999,342L999,342L999,342L999,342L999,342L997,342L997,105L999,105L999,105L999,105L999,105L999,104L999,104L999,104L1000,104L1000,104L1000,104L1000,104L1000,104L1000,104L1000,104L1000,104L1000,104L1000,104L1000,104L1000,103L1000,103L1000,95L1000,95L1000,95L1000,95L1000,95L1000,95L1000,95L1000,95L1000,95L1000,95L1000,95L1000,95L999,94L999,94L999,94L999,94L999,94L999,94L999,94L997,94L997,8L997,8L997,8L997,7L996,7L996,6L996,6L996,6L996,5L996,5L995,5L995,4L995,4L994,4L994,4L994,4L993,4L993,3L992,3L992,3L897,3L897,1L897,1L897,1L897,1L897,1L896,1L896,1L896,0L896,0L896,0L896,0L896,0L896,0L896,0L896,0L896,0L896,0L896,0L895,0L887,0L887,0L887,0L887,0L887,0L887,0L887,0L887,0L887,0L887,0L887,0L887,0L887,1L886,1L886,1L886,1L886,1L886,1L886,1L886,1L886,3L505,3L505,1"/>
  <path fill="none" stroke="#000000" stroke-width="0.2%" d="M693,151L704,151L704,156L693,156L693,151"/>
  <path fill="none" stroke="#000000" stroke-width="0.2%" d="M123,151L135,151L135,156L123,156L123,151"/>
  <path fill="none" stroke="#000000" stroke-width="0.2%" d="M408,151L419,151L419,156L408,156L408,151"/>
  <path fill="none" stroke="#000000" stroke-width="0.2%" d="M408,291L419,291L419,295L408,295L408,291"/>
  <path fill="none" stroke="#000000" stroke-width="0.2%" d="M123,291L135,291L135,295L123,295L123,291"/>
  <path fill="none" stroke="#000000" stroke-width="0.2%" d="M693,291L704,291L704,295L693,295L693,291"/>
  <path fill="none" stroke="#000000" stroke-width="0.2%" d="M898,384L886,384L886,379L898,379L898,384"/>
  <path fill="none" stroke="#000000" stroke-width="0.2%" d="M980,384L969,384L969,379L980,379L980,384"/>
  <path fill="none" stroke="#000000" stroke-width="0.2%" d="M367,888L367,888L367,887L367,886L367,885L366,884L366,884L366,883L365,882L365,882L364,881L363,881L363,880L362,880L361,880L360,879L360,879L359,879L358,879L357,879L356,879L356,879L355,880L354,880L353,880L353,881L352,881L351,882L351,882L350,883L350,884L350,884L349,885L349,886L349,887L349,888L349,888L349,889L349,890L349,891L349,892L350,892L350,893L350,894L351,894L351,895L352,895L353,896L353,896L354,897L355,897L356,897L356,898L357,898L358,898L359,898L360,898L360,897L361,897L362,897L363,896L363,896L364,895L365,895L365,894L366,894L366,893L366,892L367,892L367,891L367,890L367,889L367,888"/>
  <path fill="none" stroke="#000000" stroke-width="0.2%" d="M651,888L651,888L651,887L651,886L651,885L650,884L650,884L650,883L649,882L649,882L648,881L647,881L647,880L646,880L645,880L644,879L644,879L643,879L642,879L641,879L640,879L640,879L639,880L638,880L637,880L637,881L636,881L635,882L635,882L634,883L634,884L634,884L633,885L633,886L633,887L633,888L633,888L633,889L633,890L633,891L633,892L634,892L634,893L634,894L635,894L635,895L636,895L637,896L637,896L638,897L639,897L640,897L640,898L641,898L642,898L643,898L644,898L644,897L645,897L646,897L647,896L647,896L648,895L649,895L649,894L650,894L650,893L650,892L651,892L651,891L651,890L651,889L651,888"/>  </svg>