<?xml version="1.0"?>
<svg 
  xmlns="http://www.w3.org/2000/svg" 
  xmlns:xlink="http://www.w3.org/1999/xlink" version="1.1" preserveAspectRatio="xMinYMin meet" viewBox="0 0 1000 1777" width="100%" height="100%">
  <path fill="none" stroke="#ffff00" stroke-width="0.2%" d="M311,674L311,640"/>
  <path fill="none" stroke="#ffff00" stroke-width="0.2%" d="M311,640L345,640"/>
  <path fill="none" stroke="#ffff00" stroke-width="0.2%" d="M345,640L312,640"/>
  <path fill="none" stroke="#ffff00" stroke-width="0.2%" d="M312,640L312,674"/>
  <path fill="none" stroke="#ffff00" stroke-width="0.2%" d="M312,1103L312,1137"/>
  <path fill="none" stroke="#ffff00" stroke-width="0.2%" d="M312,1137L345,1137"/>
  <path fill="none" stroke="#ffff00" stroke-width="0.2%" d="M345,1137L311,1137"/>
  <path fill="none" stroke="#ffff00" stroke-width="0.2%" d="M311,1137L311,1103"/>
  <path fill="none" stroke="#000000" stroke-width="0.2%" d="M870,1685L865,1685"/>
  <path fill="none" stroke="#000000" stroke-width="0.2%" d="M865,92L870,92"/>
  <path fill="none" stroke="#000000" stroke-width="0.2%" d="M870,1673L870,1685"/>
  <path fill="none" stroke="#000000" stroke-width="0.2%" d="M870,92L870,103"/>
  <path fill="none" stroke="#000000" stroke-width="0.2%" d="M865,1685L865,1673"/>
  <path fill="none" stroke="#000000" stroke-width="0.2%" d="M865,1673L870,1673"/>
  <path fill="none" stroke="#000000" stroke-width="0.2%" d="M870,103L865,103"/>
  <path fill="none" stroke="#000000" stroke-width="0.2%" d="M865,103L865,92"/>
  <path fill="none" stroke="#000000" stroke-width="0.2%" d="M870,1447L865,1447"/>
  <path fill="none" stroke="#000000" stroke-width="0.2%" d="M865,330L870,330"/>
  <path fill="none" stroke="#000000" stroke-width="0.2%" d="M870,1436L870,1447"/>
  <path fill="none" stroke="#000000" stroke-width="0.2%" d="M870,330L870,341"/>
  <path fill="none" stroke="#000000" stroke-width="0.2%" d="M865,1447L865,1436"/>
  <path fill="none" stroke="#000000" stroke-width="0.2%" d="M865,1436L870,1436"/>
  <path fill="none" stroke="#000000" stroke-width="0.2%" d="M870,341L865,341"/>
  <path fill="none" stroke="#000000" stroke-width="0.2%" d="M865,341L865,330"/>
  <path fill="none" stroke="#000000" stroke-width="0.2%" d="M384,1698L395,1698"/>
  <path fill="none" stroke="#000000" stroke-width="0.2%" d="M395,79L384,79"/>
  <path fill="none" stroke="#000000" stroke-width="0.2%" d="M384,1702L384,1698"/>
  <path fill="none" stroke="#000000" stroke-width="0.2%" d="M384,79L384,74"/>
  <path fill="none" stroke="#000000" stroke-width="0.2%" d="M395,1698L395,1702"/>
  <path fill="none" stroke="#000000" stroke-width="0.2%" d="M395,1702L384,1702"/>
  <path fill="none" stroke="#000000" stroke-width="0.2%" d="M384,74L395,74"/>
  <path fill="none" stroke="#000000" stroke-width="0.2%" d="M395,74L395,79"/>
  <path fill="none" stroke="#000000" stroke-width="0.2%" d="M32,1698L43,1698"/>
  <path fill="none" stroke="#000000" stroke-width="0.2%" d="M43,79L32,79"/>
  <path fill="none" stroke="#000000" stroke-width="0.2%" d="M32,1702L32,1698"/>
  <path fill="none" stroke="#000000" stroke-width="0.2%" d="M32,79L32,74"/>
  <path fill="none" stroke="#000000" stroke-width="0.2%" d="M43,1698L43,1702"/>
  <path fill="none" stroke="#000000" stroke-width="0.2%" d="M43,1702L32,1702"/>
  <path fill="none" stroke="#000000" stroke-width="0.2%" d="M32,74L43,74"/>
  <path fill="none" stroke="#000000" stroke-width="0.2%" d="M43,74L43,79"/>
  <path fill="none" stroke="#000000" stroke-width="0.2%" d="M736,1698L748,1698"/>
  <path fill="none" stroke="#000000" stroke-width="0.2%" d="M748,79L736,79"/>
  <path fill="none" stroke="#000000" stroke-width="0.2%" d="M736,1702L736,1698"/>
  <path fill="none" stroke="#000000" stroke-width="0.2%" d="M736,79L736,74"/>
  <path fill="none" stroke="#000000" stroke-width="0.2%" d="M748,1698L748,1702"/>
  <path fill="none" stroke="#000000" stroke-width="0.2%" d="M748,1702L736,1702"/>
  <path fill="none" stroke="#000000" stroke-width="0.2%" d="M736,74L748,74"/>
  <path fill="none" stroke="#000000" stroke-width="0.2%" d="M748,74L748,79"/>
  <path fill="none" stroke="#000000" stroke-width="0.2%" d="M367,888L367,888L367,887L367,886L367,885L366,884L366,884L366,883L365,882L365,882L364,881L363,881L363,880L362,880L361,880L360,879L360,879L359,879L358,879L357,879L356,879L356,879L355,880L354,880L353,880L353,881L352,881L351,882L351,882L350,883L350,884L350,884L349,885L349,886L349,887L349,888L349,888L349,889L349,890L349,891L349,892L350,892L350,893L350,894L351,894L351,895L352,895L353,896L353,896L354,897L355,897L356,897L356,898L357,898L358,898L359,898L360,898L360,897L361,897L362,897L363,896L363,896L364,895L365,895L365,894L366,894L366,893L366,892L367,892L367,891L367,890L367,889L367,888"/>
  <path fill="none" stroke="#000000" stroke-width="0.2%" d="M651,888L651,888L651,887L651,886L651,885L650,884L650,884L650,883L649,882L649,882L648,881L647,881L647,880L646,880L645,880L644,879L644,879L643,879L642,879L641,879L640,879L640,879L639,880L638,880L637,880L637,881L636,881L635,882L635,882L634,883L634,884L634,884L633,885L633,886L633,887L633,888L633,888L633,889L633,890L633,891L633,892L634,892L634,893L634,894L635,894L635,895L636,895L637,896L637,896L638,897L639,897L640,897L640,898L641,898L642,898L643,898L644,898L644,897L645,897L646,897L647,896L647,896L648,895L649,895L649,894L650,894L650,893L650,892L651,892L651,891L651,890L651,889L651,888"/>
  <path fill="none" stroke="#000000" stroke-width="0.2%" d="M48,509L53,509"/>
  <path fill="none" stroke="#000000" stroke-width="0.2%" d="M53,509L53,520"/>
  <path fill="none" stroke="#000000" stroke-width="0.2%" d="M53,520L48,520"/>
  <path fill="none" stroke="#000000" stroke-width="0.2%" d="M48,520L48,509"/>
  <path fill="none" stroke="#000000" stroke-width="0.2%" d="M48,1257L53,1257"/>
  <path fill="none" stroke="#000000" stroke-width="0.2%" d="M53,1257L53,1268"/>
  <path fill="none" stroke="#000000" stroke-width="0.2%" d="M53,1268L48,1268"/>
  <path fill="none" stroke="#000000" stroke-width="0.2%" d="M48,1268L48,1257"/>
  <path fill="none" stroke="#000000" stroke-width="0.2%" d="M48,883L53,883"/>
  <path fill="none" stroke="#000000" stroke-width="0.2%" d="M53,883L53,894"/>
  <path fill="none" stroke="#000000" stroke-width="0.2%" d="M53,894L48,894"/>
  <path fill="none" stroke="#000000" stroke-width="0.2%" d="M48,894L48,883"/>
  <path fill="none" stroke="#000000" stroke-width="0.2%" d="M90,883L95,883"/>
  <path fill="none" stroke="#000000" stroke-width="0.2%" d="M95,883L95,894"/>
  <path fill="none" stroke="#000000" stroke-width="0.2%" d="M95,894L90,894"/>
  <path fill="none" stroke="#000000" stroke-width="0.2%" d="M90,894L90,883"/>
  <path fill="none" stroke="#000000" stroke-width="0.2%" d="M90,1257L95,1257"/>
  <path fill="none" stroke="#000000" stroke-width="0.2%" d="M95,1257L95,1268"/>
  <path fill="none" stroke="#000000" stroke-width="0.2%" d="M95,1268L90,1268"/>
  <path fill="none" stroke="#000000" stroke-width="0.2%" d="M90,1268L90,1257"/>
  <path fill="none" stroke="#000000" stroke-width="0.2%" d="M90,509L95,509"/>
  <path fill="none" stroke="#000000" stroke-width="0.2%" d="M95,509L95,520"/>
  <path fill="none" stroke="#000000" stroke-width="0.2%" d="M95,520L90,520"/>
  <path fill="none" stroke="#000000" stroke-width="0.2%" d="M90,520L90,509"/>
  <path fill="none" stroke="#000000" stroke-width="0.2%" d="M969,1393L980,1393"/>
  <path fill="none" stroke="#000000" stroke-width="0.2%" d="M980,1393L980,1398"/>
  <path fill="none" stroke="#000000" stroke-width="0.2%" d="M980,1398L969,1398"/>
  <path fill="none" stroke="#000000" stroke-width="0.2%" d="M969,1398L969,1393"/>
  <path fill="none" stroke="#000000" stroke-width="0.2%" d="M886,1393L898,1393"/>
  <path fill="none" stroke="#000000" stroke-width="0.2%" d="M898,1393L898,1398"/>
  <path fill="none" stroke="#000000" stroke-width="0.2%" d="M898,1398L886,1398"/>
  <path fill="none" stroke="#000000" stroke-width="0.2%" d="M886,1398L886,1393"/>
  <path fill="none" stroke="#000000" stroke-width="0.2%" d="M704,1486L693,1486"/>
  <path fill="none" stroke="#000000" stroke-width="0.2%" d="M693,1486L693,1481"/>
  <path fill="none" stroke="#000000" stroke-width="0.2%" d="M693,1481L704,1481"/>
  <path fill="none" stroke="#000000" stroke-width="0.2%" d="M704,1481L704,1486"/>
  <path fill="none" stroke="#000000" stroke-width="0.2%" d="M135,1486L123,1486"/>
  <path fill="none" stroke="#000000" stroke-width="0.2%" d="M123,1486L123,1481"/>
  <path fill="none" stroke="#000000" stroke-width="0.2%" d="M123,1481L135,1481"/>
  <path fill="none" stroke="#000000" stroke-width="0.2%" d="M135,1481L135,1486"/>
  <path fill="none" stroke="#000000" stroke-width="0.2%" d="M419,1486L408,1486"/>
  <path fill="none" stroke="#000000" stroke-width="0.2%" d="M408,1486L408,1481"/>
  <path fill="none" stroke="#000000" stroke-width="0.2%" d="M408,1481L419,1481"/>
  <path fill="none" stroke="#000000" stroke-width="0.2%" d="M419,1481L419,1486"/>
  <path fill="none" stroke="#000000" stroke-width="0.2%" d="M419,1626L408,1626"/>
  <path fill="none" stroke="#000000" stroke-width="0.2%" d="M408,1626L408,1621"/>
  <path fill="none" stroke="#000000" stroke-width="0.2%" d="M408,1621L419,1621"/>
  <path fill="none" stroke="#000000" stroke-width="0.2%" d="M419,1621L419,1626"/>
  <path fill="none" stroke="#000000" stroke-width="0.2%" d="M135,1626L123,1626"/>
  <path fill="none" stroke="#000000" stroke-width="0.2%" d="M123,1626L123,1621"/>
  <path fill="none" stroke="#000000" stroke-width="0.2%" d="M123,1621L135,1621"/>
  <path fill="none" stroke="#000000" stroke-width="0.2%" d="M135,1621L135,1626"/>
  <path fill="none" stroke="#000000" stroke-width="0.2%" d="M704,1626L693,1626"/>
  <path fill="none" stroke="#000000" stroke-width="0.2%" d="M693,1626L693,1621"/>
  <path fill="none" stroke="#000000" stroke-width="0.2%" d="M693,1621L704,1621"/>
  <path fill="none" stroke="#000000" stroke-width="0.2%" d="M704,1621L704,1626"/>
  <path fill="none" stroke="#000000" stroke-width="0.2%" d="M693,951L704,951"/>
  <path fill="none" stroke="#000000" stroke-width="0.2%" d="M704,951L704,955"/>
  <path fill="none" stroke="#000000" stroke-width="0.2%" d="M704,955L693,955"/>
  <path fill="none" stroke="#000000" stroke-width="0.2%" d="M693,955L693,951"/>
  <path fill="none" stroke="#000000" stroke-width="0.2%" d="M693,1080L704,1080"/>
  <path fill="none" stroke="#000000" stroke-width="0.2%" d="M704,1080L704,1085"/>
  <path fill="none" stroke="#000000" stroke-width="0.2%" d="M704,1085L693,1085"/>
  <path fill="none" stroke="#000000" stroke-width="0.2%" d="M693,1085L693,1080"/>
  <path fill="none" stroke="#000000" stroke-width="0.2%" d="M408,951L419,951"/>
  <path fill="none" stroke="#000000" stroke-width="0.2%" d="M419,951L419,955"/>
  <path fill="none" stroke="#000000" stroke-width="0.2%" d="M419,955L408,955"/>
  <path fill="none" stroke="#000000" stroke-width="0.2%" d="M408,955L408,951"/>
  <path fill="none" stroke="#000000" stroke-width="0.2%" d="M135,1210L135,1215"/>
  <path fill="none" stroke="#000000" stroke-width="0.2%" d="M135,1215L123,1215"/>
  <path fill="none" stroke="#000000" stroke-width="0.2%" d="M123,1215L123,1210"/>
  <path fill="none" stroke="#000000" stroke-width="0.2%" d="M123,1210L135,1210"/>
  <path fill="none" stroke="#000000" stroke-width="0.2%" d="M693,562L704,562"/>
  <path fill="none" stroke="#000000" stroke-width="0.2%" d="M704,562L704,567"/>
  <path fill="none" stroke="#000000" stroke-width="0.2%" d="M704,567L693,567"/>
  <path fill="none" stroke="#000000" stroke-width="0.2%" d="M693,567L693,562"/>
  <path fill="none" stroke="#000000" stroke-width="0.2%" d="M693,821L704,821"/>
  <path fill="none" stroke="#000000" stroke-width="0.2%" d="M704,821L704,826"/>
  <path fill="none" stroke="#000000" stroke-width="0.2%" d="M704,826L693,826"/>
  <path fill="none" stroke="#000000" stroke-width="0.2%" d="M693,826L693,821"/>
  <path fill="none" stroke="#000000" stroke-width="0.2%" d="M123,692L135,692"/>
  <path fill="none" stroke="#000000" stroke-width="0.2%" d="M135,692L135,696"/>
  <path fill="none" stroke="#000000" stroke-width="0.2%" d="M135,696L123,696"/>
  <path fill="none" stroke="#000000" stroke-width="0.2%" d="M123,696L123,692"/>
  <path fill="none" stroke="#000000" stroke-width="0.2%" d="M408,562L419,562"/>
  <path fill="none" stroke="#000000" stroke-width="0.2%" d="M419,562L419,567"/>
  <path fill="none" stroke="#000000" stroke-width="0.2%" d="M419,567L408,567"/>
  <path fill="none" stroke="#000000" stroke-width="0.2%" d="M408,567L408,562"/>
  <path fill="none" stroke="#000000" stroke-width="0.2%" d="M408,821L419,821"/>
  <path fill="none" stroke="#000000" stroke-width="0.2%" d="M419,821L419,826"/>
  <path fill="none" stroke="#000000" stroke-width="0.2%" d="M419,826L408,826"/>
  <path fill="none" stroke="#000000" stroke-width="0.2%" d="M408,826L408,821"/>
  <path fill="none" stroke="#000000" stroke-width="0.2%" d="M408,692L419,692"/>
  <path fill="none" stroke="#000000" stroke-width="0.2%" d="M419,692L419,696"/>
  <path fill="none" stroke="#000000" stroke-width="0.2%" d="M419,696L408,696"/>
  <path fill="none" stroke="#000000" stroke-width="0.2%" d="M408,696L408,692"/>
  <path fill="none" stroke="#000000" stroke-width="0.2%" d="M123,821L135,821"/>
  <path fill="none" stroke="#000000" stroke-width="0.2%" d="M135,821L135,826"/>
  <path fill="none" stroke="#000000" stroke-width="0.2%" d="M135,826L123,826"/>
  <path fill="none" stroke="#000000" stroke-width="0.2%" d="M123,826L123,821"/>
  <path fill="none" stroke="#000000" stroke-width="0.2%" d="M123,562L135,562"/>
  <path fill="none" stroke="#000000" stroke-width="0.2%" d="M135,562L135,567"/>
  <path fill="none" stroke="#000000" stroke-width="0.2%" d="M135,567L123,567"/>
  <path fill="none" stroke="#000000" stroke-width="0.2%" d="M123,567L123,562"/>
  <path fill="none" stroke="#000000" stroke-width="0.2%" d="M693,692L704,692"/>
  <path fill="none" stroke="#000000" stroke-width="0.2%" d="M704,692L704,696"/>
  <path fill="none" stroke="#000000" stroke-width="0.2%" d="M704,696L693,696"/>
  <path fill="none" stroke="#000000" stroke-width="0.2%" d="M693,696L693,692"/>
  <path fill="none" stroke="#000000" stroke-width="0.2%" d="M123,1080L135,1080"/>
  <path fill="none" stroke="#000000" stroke-width="0.2%" d="M135,1080L135,1085"/>
  <path fill="none" stroke="#000000" stroke-width="0.2%" d="M135,1085L123,1085"/>
  <path fill="none" stroke="#000000" stroke-width="0.2%" d="M123,1085L123,1080"/>
  <path fill="none" stroke="#000000" stroke-width="0.2%" d="M135,951L135,955"/>
  <path fill="none" stroke="#000000" stroke-width="0.2%" d="M135,955L123,955"/>
  <path fill="none" stroke="#000000" stroke-width="0.2%" d="M123,955L123,951"/>
  <path fill="none" stroke="#000000" stroke-width="0.2%" d="M123,951L135,951"/>
  <path fill="none" stroke="#000000" stroke-width="0.2%" d="M408,1080L419,1080"/>
  <path fill="none" stroke="#000000" stroke-width="0.2%" d="M419,1080L419,1085"/>
  <path fill="none" stroke="#000000" stroke-width="0.2%" d="M419,1085L408,1085"/>
  <path fill="none" stroke="#000000" stroke-width="0.2%" d="M408,1085L408,1080"/>
  <path fill="none" stroke="#000000" stroke-width="0.2%" d="M693,1210L704,1210"/>
  <path fill="none" stroke="#000000" stroke-width="0.2%" d="M704,1210L704,1215"/>
  <path fill="none" stroke="#000000" stroke-width="0.2%" d="M704,1215L693,1215"/>
  <path fill="none" stroke="#000000" stroke-width="0.2%" d="M693,1215L693,1210"/>
  <path fill="none" stroke="#000000" stroke-width="0.2%" d="M408,1210L419,1210"/>
  <path fill="none" stroke="#000000" stroke-width="0.2%" d="M419,1210L419,1215"/>
  <path fill="none" stroke="#000000" stroke-width="0.2%" d="M419,1215L408,1215"/>
  <path fill="none" stroke="#000000" stroke-width="0.2%" d="M408,1215L408,1210"/>
  <path fill="none" stroke="#000000" stroke-width="0.2%" d="M865,1115L870,1115"/>
  <path fill="none" stroke="#000000" stroke-width="0.2%" d="M870,1115L870,1126"/>
  <path fill="none" stroke="#000000" stroke-width="0.2%" d="M870,1126L865,1126"/>
  <path fill="none" stroke="#000000" stroke-width="0.2%" d="M865,1126L865,1115"/>
  <path fill="none" stroke="#000000" stroke-width="0.2%" d="M865,650L870,650"/>
  <path fill="none" stroke="#000000" stroke-width="0.2%" d="M870,650L870,662"/>
  <path fill="none" stroke="#000000" stroke-width="0.2%" d="M870,662L865,662"/>
  <path fill="none" stroke="#000000" stroke-width="0.2%" d="M865,662L865,650"/>
  <path fill="none" stroke="#000000" stroke-width="0.2%" d="M693,151L704,151"/>
  <path fill="none" stroke="#000000" stroke-width="0.2%" d="M704,151L704,156"/>
  <path fill="none" stroke="#000000" stroke-width="0.2%" d="M704,156L693,156"/>
  <path fill="none" stroke="#000000" stroke-width="0.2%" d="M693,156L693,151"/>
  <path fill="none" stroke="#000000" stroke-width="0.2%" d="M123,151L135,151"/>
  <path fill="none" stroke="#000000" stroke-width="0.2%" d="M135,151L135,156"/>
  <path fill="none" stroke="#000000" stroke-width="0.2%" d="M135,156L123,156"/>
  <path fill="none" stroke="#000000" stroke-width="0.2%" d="M123,156L123,151"/>
  <path fill="none" stroke="#000000" stroke-width="0.2%" d="M408,151L419,151"/>
  <path fill="none" stroke="#000000" stroke-width="0.2%" d="M419,151L419,156"/>
  <path fill="none" stroke="#000000" stroke-width="0.2%" d="M419,156L408,156"/>
  <path fill="none" stroke="#000000" stroke-width="0.2%" d="M408,156L408,151"/>
  <path fill="none" stroke="#000000" stroke-width="0.2%" d="M408,291L419,291"/>
  <path fill="none" stroke="#000000" stroke-width="0.2%" d="M419,291L419,295"/>
  <path fill="none" stroke="#000000" stroke-width="0.2%" d="M419,295L408,295"/>
  <path fill="none" stroke="#000000" stroke-width="0.2%" d="M408,295L408,291"/>
  <path fill="none" stroke="#000000" stroke-width="0.2%" d="M123,291L135,291"/>
  <path fill="none" stroke="#000000" stroke-width="0.2%" d="M135,291L135,295"/>
  <path fill="none" stroke="#000000" stroke-width="0.2%" d="M135,295L123,295"/>
  <path fill="none" stroke="#000000" stroke-width="0.2%" d="M123,295L123,291"/>
  <path fill="none" stroke="#000000" stroke-width="0.2%" d="M693,291L704,291"/>
  <path fill="none" stroke="#000000" stroke-width="0.2%" d="M704,291L704,295"/>
  <path fill="none" stroke="#000000" stroke-width="0.2%" d="M704,295L693,295"/>
  <path fill="none" stroke="#000000" stroke-width="0.2%" d="M693,295L693,291"/>
  <path fill="none" stroke="#000000" stroke-width="0.2%" d="M898,384L886,384"/>
  <path fill="none" stroke="#000000" stroke-width="0.2%" d="M886,384L886,379"/>
  <path fill="none" stroke="#000000" stroke-width="0.2%" d="M886,379L898,379"/>
  <path fill="none" stroke="#000000" stroke-width="0.2%" d="M898,379L898,384"/>
  <path fill="none" stroke="#000000" stroke-width="0.2%" d="M980,384L969,384"/>
  <path fill="none" stroke="#000000" stroke-width="0.2%" d="M969,384L969,379"/>
  <path fill="none" stroke="#000000" stroke-width="0.2%" d="M969,379L980,379"/>
  <path fill="none" stroke="#000000" stroke-width="0.2%" d="M980,379L980,384"/>
  <path fill="none" stroke="#000000" stroke-width="0.2%" d="M504,0L496,0"/>
  <path fill="none" stroke="#000000" stroke-width="0.2%" d="M495,3L114,3"/>
  <path fill="none" stroke="#000000" stroke-width="0.2%" d="M105,0L113,0"/>
  <path fill="none" stroke="#000000" stroke-width="0.2%" d="M103,3L8,3"/>
  <path fill="none" stroke="#000000" stroke-width="0.2%" d="M8,3L8,3L7,3L7,4L6,4L6,4L6,4L5,4L5,4L5,5L4,5L4,5L4,6L4,6L4,6L4,7L3,7L3,8L3,8"/>
  <path fill="none" stroke="#000000" stroke-width="0.2%" d="M3,8L3,94"/>
  <path fill="none" stroke="#000000" stroke-width="0.2%" d="M0,103L0,95"/>
  <path fill="none" stroke="#000000" stroke-width="0.2%" d="M3,105L3,342"/>
  <path fill="none" stroke="#000000" stroke-width="0.2%" d="M0,351L0,343"/>
  <path fill="none" stroke="#000000" stroke-width="0.2%" d="M3,679L3,352"/>
  <path fill="none" stroke="#000000" stroke-width="0.2%" d="M0,688L0,680"/>
  <path fill="none" stroke="#000000" stroke-width="0.2%" d="M3,883L3,689"/>
  <path fill="none" stroke="#000000" stroke-width="0.2%" d="M0,892L0,884"/>
  <path fill="none" stroke="#000000" stroke-width="0.2%" d="M3,1088L3,894"/>
  <path fill="none" stroke="#000000" stroke-width="0.2%" d="M0,1097L0,1089"/>
  <path fill="none" stroke="#000000" stroke-width="0.2%" d="M3,1425L3,1098"/>
  <path fill="none" stroke="#000000" stroke-width="0.2%" d="M0,1426L0,1434"/>
  <path fill="none" stroke="#000000" stroke-width="0.2%" d="M3,1672L3,1435"/>
  <path fill="none" stroke="#000000" stroke-width="0.2%" d="M0,1673L0,1681"/>
  <path fill="none" stroke="#000000" stroke-width="0.2%" d="M3,1769L3,1682"/>
  <path fill="none" stroke="#000000" stroke-width="0.2%" d="M3,1769L3,1769L3,1770L4,1770L4,1770L4,1771L4,1771L4,1771L4,1772L5,1772L5,1772L5,1773L6,1773L6,1773L6,1773L7,1773L7,1773L8,1773L8,1773"/>
  <path fill="none" stroke="#000000" stroke-width="0.2%" d="M8,1773L103,1773"/>
  <path fill="none" stroke="#000000" stroke-width="0.2%" d="M105,1777L113,1777"/>
  <path fill="none" stroke="#000000" stroke-width="0.2%" d="M114,1773L495,1773"/>
  <path fill="none" stroke="#000000" stroke-width="0.2%" d="M504,1777L496,1777"/>
  <path fill="none" stroke="#000000" stroke-width="0.2%" d="M505,1773L886,1773"/>
  <path fill="none" stroke="#000000" stroke-width="0.2%" d="M888,1777L895,1777"/>
  <path fill="none" stroke="#000000" stroke-width="0.2%" d="M897,1773L992,1773"/>
  <path fill="none" stroke="#000000" stroke-width="0.2%" d="M992,1773L992,1773L993,1773L993,1773L994,1773L994,1773L994,1773L995,1773L995,1772L995,1772L996,1772L996,1771L996,1771L996,1771L996,1770L996,1770L997,1770L997,1769L997,1769"/>
  <path fill="none" stroke="#000000" stroke-width="0.2%" d="M997,1769L997,1682"/>
  <path fill="none" stroke="#000000" stroke-width="0.2%" d="M1000,1681L1000,1673"/>
  <path fill="none" stroke="#000000" stroke-width="0.2%" d="M997,1672L997,1435"/>
  <path fill="none" stroke="#000000" stroke-width="0.2%" d="M1000,1434L1000,1426"/>
  <path fill="none" stroke="#000000" stroke-width="0.2%" d="M997,1098L997,1425"/>
  <path fill="none" stroke="#000000" stroke-width="0.2%" d="M1000,1089L1000,1097"/>
  <path fill="none" stroke="#000000" stroke-width="0.2%" d="M997,894L997,1088"/>
  <path fill="none" stroke="#000000" stroke-width="0.2%" d="M1000,884L1000,892"/>
  <path fill="none" stroke="#000000" stroke-width="0.2%" d="M997,689L997,883"/>
  <path fill="none" stroke="#000000" stroke-width="0.2%" d="M1000,680L1000,688"/>
  <path fill="none" stroke="#000000" stroke-width="0.2%" d="M997,352L997,679"/>
  <path fill="none" stroke="#000000" stroke-width="0.2%" d="M1000,343L1000,351"/>
  <path fill="none" stroke="#000000" stroke-width="0.2%" d="M997,105L997,342"/>
  <path fill="none" stroke="#000000" stroke-width="0.2%" d="M1000,95L1000,103"/>
  <path fill="none" stroke="#000000" stroke-width="0.2%" d="M997,8L997,94"/>
  <path fill="none" stroke="#000000" stroke-width="0.2%" d="M997,8L997,8L997,7L996,7L996,6L996,6L996,6L996,5L996,5L995,5L995,4L995,4L994,4L994,4L994,4L993,4L993,3L992,3L992,3"/>
  <path fill="none" stroke="#000000" stroke-width="0.2%" d="M992,3L897,3"/>
  <path fill="none" stroke="#000000" stroke-width="0.2%" d="M887,0L895,0"/>
  <path fill="none" stroke="#000000" stroke-width="0.2%" d="M886,3L505,3"/>  </svg>