<?xml version="1.0"?>
<svg 
  xmlns="http://www.w3.org/2000/svg" 
  xmlns:xlink="http://www.w3.org/1999/xlink" version="1.1" preserveAspectRatio="xMinYMin meet" viewBox="0 0 1000 1067" width="100%" height="100%">
  <path fill="none" stroke="#000000" stroke-width="0.2%" d="M3,1061L3,1061L3,1061L2,1061L2,1061L2,1061L2,1061L1,1061L1,1062L1,1062L1,1062L1,1062L0,1062L0,1063L0,1063L0,1063L0,1063L0,1064L0,1064L0,1064L0,1064L0,1065L0,1065L0,1065L0,1065L1,1066L1,1066L1,1066L1,1066L1,1066L2,1067L2,1067L2,1067L2,1067L3,1067L3,1067L3,1067L3,1067L626,1067L626,1044L648,1037L691,1019L732,997L772,972L809,944L843,912L875,878L903,841L928,801L950,760L968,717L982,672L992,626L998,580L1000,534L998,487L992,441L982,395L968,350L950,307L928,266L903,226L875,189L843,155L809,123L772,95L732,70L691,48L648,30L626,23L626,0L9,0L9,0L8,0L8,0L7,0L7,1L6,1L6,1L5,1L5,2L5,2L4,3L4,3L4,4L3,4L3,5L3,5L3,6L3,6L3,6L3,1061"/>  </svg>