<?xml version="1.0"?>
<svg 
  xmlns="http://www.w3.org/2000/svg" 
  xmlns:xlink="http://www.w3.org/1999/xlink" version="1.1" preserveAspectRatio="xMinYMin meet" viewBox="0 0 1000 1654" width="100%" height="100%">
  <path fill="none" stroke="#000000" stroke-width="0.2%" d="M0,0L0,1653L1000,1653L1000,1349L984,1348L939,1342L894,1332L851,1318L809,1301L768,1280L730,1255L693,1228L660,1197L629,1163L601,1127L577,1088L555,1048L538,1006L524,962L514,917L508,872L506,827L508,781L514,736L524,691L538,647L555,605L577,565L601,526L629,490L660,456L693,426L730,398L768,373L809,352L851,335L894,321L939,311L984,305L1000,304L1000,0L0,0"/>  </svg>