<?xml version="1.0"?>
<svg 
  xmlns="http://www.w3.org/2000/svg" 
  xmlns:xlink="http://www.w3.org/1999/xlink" version="1.1" preserveAspectRatio="xMinYMin meet" viewBox="0 0 1001 1107" width="100%" height="100%">
  <path fill="none" stroke="#000000" stroke-width="0.2%" d="M0,0L0,1107L670,1107L670,903L680,903L710,899L740,892L769,883L798,871L825,857L851,840L875,822L897,801L918,779L937,754L953,729L967,701L979,673L988,644L995,614L999,584L1000,553L999,523L995,493L988,463L979,434L967,405L953,378L937,352L918,328L897,306L875,285L851,266L825,250L798,236L769,224L740,215L710,208L680,204L670,203L670,0L0,0"/>  </svg>