<?xml version="1.0"?>
<svg 
  xmlns="http://www.w3.org/2000/svg" 
  xmlns:xlink="http://www.w3.org/1999/xlink" version="1.1" preserveAspectRatio="xMinYMin meet" viewBox="0 0 1000 2723" width="100%" height="100%">
  <path fill="none" stroke="#000000" stroke-width="0.2%" d="M858,2718L859,2719L869,2721L879,2722L888,2722L898,2722L908,2721L917,2719L926,2716L935,2712L944,2707L952,2702L960,2696L967,2690L974,2682L980,2675L985,2667L990,2658L993,2649L996,2640L998,2630L1000,2620L1000,2611L1000,112L1000,112L1000,102L998,92L996,83L993,74L990,65L985,56L980,48L974,40L967,33L960,26L952,20L944,15L935,10L926,7L917,4L908,2L898,0L888,0L879,0L869,2L859,4L858,4L204,187L184,193L161,203L140,214L119,227L100,242L82,258L65,276L51,296L37,316L26,338L17,360L10,384L4,407L1,432L0,456L0,2267L0,2267L1,2291L4,2315L10,2339L17,2362L26,2385L37,2406L51,2427L65,2446L82,2464L100,2481L119,2495L140,2508L161,2520L184,2529L204,2536L858,2718"/>
  <path fill="none" stroke="#000000" stroke-width="0.2%" d="M783,803L782,790L780,778L778,766L774,755L770,743L764,733L757,722L750,713L742,704L733,696L723,688L713,682L702,676L691,671L679,668L667,665L655,663L643,663L631,663L619,665L607,668L595,671L584,676L573,682L563,688L553,696L544,704L536,713L529,722L522,733L516,743L512,755L508,766L505,778L504,790L503,803L504,815L505,827L508,839L512,850L516,862L522,872L529,883L536,892L544,901L553,910L563,917L573,923L584,929L595,934L607,937L619,940L631,942L643,942L655,942L667,940L679,937L691,934L702,929L713,923L723,917L733,910L742,901L750,892L757,883L764,872L770,862L774,850L778,839L780,827L782,815L783,803"/>
  <path fill="none" stroke="#000000" stroke-width="0.2%" d="M364,2032L363,2022L362,2012L360,2003L357,1993L353,1984L349,1976L343,1968L337,1960L331,1953L324,1946L316,1940L308,1935L299,1930L290,1927L281,1924L271,1922L262,1920L252,1920L242,1920L232,1922L223,1924L214,1927L205,1930L196,1935L188,1940L180,1946L173,1953L166,1960L160,1968L155,1976L151,1984L147,1993L144,2003L142,2012L141,2022L140,2032L141,2041L142,2051L144,2061L147,2070L151,2079L155,2087L160,2096L166,2103L173,2111L180,2117L188,2123L196,2128L205,2133L214,2137L223,2140L232,2142L242,2143L252,2143L262,2143L271,2142L281,2140L290,2137L299,2133L308,2128L316,2123L324,2117L331,2111L337,2103L343,2096L349,2087L353,2079L357,2070L360,2061L362,2051L363,2041L364,2032"/>
  <path fill="none" stroke="#000000" stroke-width="0.2%" d="M838,1641L838,1633L837,1626L836,1619L833,1612L831,1605L827,1599L823,1592L819,1587L814,1581L809,1576L803,1572L797,1568L790,1565L783,1562L776,1560L769,1558L762,1557L755,1557L747,1557L740,1558L733,1560L726,1562L719,1565L713,1568L707,1572L701,1576L695,1581L690,1587L686,1592L682,1599L679,1605L676,1612L674,1619L672,1626L671,1633L671,1641L671,1648L672,1655L674,1662L676,1669L679,1676L682,1682L686,1689L690,1694L695,1700L701,1705L707,1709L713,1713L719,1716L726,1719L733,1721L740,1723L747,1724L755,1724L762,1724L769,1723L776,1721L783,1719L790,1716L797,1713L803,1709L809,1705L814,1700L819,1694L823,1689L827,1682L831,1676L833,1669L836,1662L837,1655L838,1648L838,1641"/>  </svg>