<?xml version="1.0"?>
<svg 
  xmlns="http://www.w3.org/2000/svg" 
  xmlns:xlink="http://www.w3.org/1999/xlink" version="1.1" preserveAspectRatio="xMinYMin meet" viewBox="0 0 1759 1000" width="100%" height="100%">
  <path fill="none" stroke="#000000" stroke-width="0.2%" d="M1759,348L1699,285L1634,226L1564,174L1490,128L1412,89L1331,56L1248,31L1162,13L1076,3L988,0L901,5L815,17L730,37L647,64L567,99L490,140L417,188L348,242L285,301L226,366L174,436L128,510L89,588L56,669L31,753L13,838L3,925L0,1000"/>
  <path fill="none" stroke="#000000" stroke-width="0.2%" d="M1411,647L1378,613L1343,581L1305,553L1265,528L1223,507L1179,489L1134,475L1088,466L1041,460L994,459L947,461L900,468L854,479L809,493L765,512L724,534L684,560L647,589L613,622L581,657L553,695L528,735L507,777L489,821L475,866L466,912L460,959L459,1000"/>
  <path fill="none" stroke="#000000" stroke-width="0.2%" d="M0,1000L459,1000"/>
  <path fill="none" stroke="#000000" stroke-width="0.2%" d="M1759,348L1411,647"/>  </svg>