<?xml version="1.0"?>
<svg 
  xmlns="http://www.w3.org/2000/svg" 
  xmlns:xlink="http://www.w3.org/1999/xlink" version="1.1" preserveAspectRatio="xMinYMin meet" viewBox="0 0 1071 1000" width="100%" height="100%">
  <path fill="none" stroke="#000000" stroke-width="0.2%" d="M23,625L0,625L0,3L0,3L0,3L0,2L0,2L0,2L0,2L1,1L1,1L1,1L1,1L1,1L2,0L2,0L2,0L2,0L3,0L3,0L3,0L1065,0L1065,0L1066,0L1066,0L1067,0L1067,1L1068,1L1068,1L1069,1L1069,2L1069,2L1070,3L1070,3L1070,4L1070,4L1071,5L1071,5L1071,6L1071,6L1071,625L1048,625"/>
  <path fill="none" stroke="#000000" stroke-width="0.2%" d="M23,625L39,669L59,711L82,752L109,790L139,826L173,859L208,890L247,916L288,940L330,960L374,976L419,988L466,996L512,1000L559,1000L606,996L652,988L697,976L741,959L784,940L824,916L863,889L899,859L932,826L962,790L989,752L1012,711L1032,668L1048,625"/>  </svg>