<?xml version="1.0"?>
<svg 
  xmlns="http://www.w3.org/2000/svg" 
  xmlns:xlink="http://www.w3.org/1999/xlink" version="1.1" preserveAspectRatio="xMinYMin meet" viewBox="0 0 2000 1000" width="100%" height="100%">
  <path fill="none" stroke="#000000" stroke-width="0.2%" d="M0,0L0,1000L2000,1000L2000,0L0,0"/>
  <path fill="none" stroke="#000000" stroke-width="0.2%" d="M1300,500L1299,474L1295,448L1290,422L1282,397L1272,373L1260,350L1246,328L1230,307L1212,288L1193,270L1172,254L1150,240L1127,228L1103,218L1078,210L1052,205L1026,201L1000,200L974,201L948,205L922,210L897,218L873,228L850,240L828,254L807,270L788,288L770,307L754,328L740,350L728,373L718,397L710,422L705,448L701,474L700,500L701,526L705,552L710,578L718,603L728,627L740,650L754,672L770,693L788,712L807,730L828,746L850,760L873,772L897,782L922,790L948,795L974,799L1000,800L1026,799L1052,795L1078,790L1103,782L1127,772L1150,760L1172,746L1193,730L1212,712L1230,693L1246,672L1260,650L1272,627L1282,603L1290,578L1295,552L1299,526L1300,500"/>  </svg>