<?xml version="1.0"?>
<svg 
  xmlns="http://www.w3.org/2000/svg" 
  xmlns:xlink="http://www.w3.org/1999/xlink" version="1.1" preserveAspectRatio="xMinYMin meet" viewBox="0 0 1000 1359" width="100%" height="100%">
  <path fill="none" stroke="#000000" stroke-width="0.2%" d="M769,311L781,316L795,320L809,323L823,325L837,326L851,325L865,323L879,320L893,316L906,310L919,304L931,296L942,288L952,278L962,268L971,256L978,244L985,232L990,219L994,205L998,191L999,177L1000,163L999,149L998,135L994,121L990,107L985,94L978,81L971,69L962,58L952,48L942,38L931,29L919,22L906,15L893,10L879,6L865,2L851,1L837,0L0,0L0,1358L997,1358"/>  </svg>