<?xml version="1.0"?>
<svg 
  xmlns="http://www.w3.org/2000/svg" 
  xmlns:xlink="http://www.w3.org/1999/xlink" version="1.1" preserveAspectRatio="xMinYMin meet" viewBox="0 0 1000 1530" width="100%" height="100%">
  <path fill="none" stroke="#000000" stroke-width="0.2%" d="M765,102L663,0L102,0L93,0L84,2L76,3L67,6L59,10L51,14L43,18L36,24L30,30L24,36L18,43L14,51L10,59L6,67L3,76L2,84L0,93L0,102L0,102L0,1427L102,1529L898,1529L907,1529L916,1528L924,1526L933,1523L941,1520L949,1516L957,1511L964,1505L970,1499L976,1493L982,1486L986,1478L990,1470L994,1462L997,1454L998,1445L1000,1436L1000,1427L1000,1418L998,1410L998,1410L958,1179L958,1179L956,1171L953,1162L950,1154L946,1146L941,1139L936,1132L930,1125L923,1119L916,1114L908,1109L901,1105L892,1101L351,904L255,767L255,306L255,306L255,297L256,288L258,279L261,271L264,263L269,255L273,247L279,240L285,234L291,228L298,222L306,218L314,213L322,210L330,207L339,205L348,204L357,204L663,204L765,102"/>
  <path fill="none" stroke="#000000" stroke-width="0.2%" d="M357,1300L356,1309L355,1318L353,1326L351,1335L347,1343L343,1351L338,1358L333,1365L327,1372L320,1378L313,1383L306,1388L298,1392L290,1396L281,1398L273,1400L264,1401L255,1402L246,1401L237,1400L228,1398L220,1396L212,1392L204,1388L196,1383L189,1378L183,1372L177,1365L171,1358L167,1351L162,1343L159,1335L156,1326L154,1318L153,1309L153,1300L153,1096L153,1087L154,1078L156,1070L159,1061L162,1053L167,1045L171,1038L177,1030L183,1024L189,1018L196,1012L204,1008L212,1004L220,1000L228,998L237,996L246,994L255,994L264,994L273,996L281,998L290,1000L298,1004L306,1008L313,1012L320,1018L327,1024L333,1030L338,1038L343,1045L347,1053L351,1061L353,1070L355,1078L356,1087L357,1096L357,1300"/>  </svg>