<?xml version="1.0"?>
<svg 
  xmlns="http://www.w3.org/2000/svg" 
  xmlns:xlink="http://www.w3.org/1999/xlink" version="1.1" preserveAspectRatio="xMinYMin meet" viewBox="0 0 1000 1530" width="100%" height="100%">
  <path fill="none" stroke="#000000" stroke-width="0.2%" d="M765,102L663,0L102,0L93,0L84,2L76,3L67,6L59,10L51,14L43,18L36,24L30,30L24,36L18,43L14,51L10,59L6,67L3,76L2,84L0,93L0,102L0,102L0,1427L102,1529L898,1529L907,1529L916,1528L924,1526L933,1523L941,1520L949,1516L957,1511L964,1505L970,1499L976,1493L982,1486L986,1478L990,1470L994,1462L997,1454L998,1445L1000,1436L1000,1427L1000,1418L998,1410L998,1410L958,1179L958,1179L956,1171L953,1162L950,1154L946,1146L941,1139L936,1132L930,1125L923,1119L916,1114L908,1109L901,1105L892,1101L351,904L255,767L255,306L255,306L255,297L256,288L258,279L261,271L264,263L269,255L273,247L279,240L285,234L291,228L298,222L306,218L314,213L322,210L330,207L339,205L348,204L357,204L663,204L765,102"/>
  <path fill="none" stroke="#000000" stroke-width="0.2%" d="M397,1223L397,1223L402,1231L406,1238L409,1247L412,1255L414,1264L415,1273L415,1281L415,1290L414,1299L412,1308L409,1316L406,1325L402,1332L397,1340L391,1347L385,1354L379,1360L372,1365L364,1370L356,1374L348,1377L340,1380L331,1382L322,1383L313,1383L304,1383L296,1382L287,1380L278,1377L270,1374L262,1370L255,1365L248,1360L241,1354L235,1347L230,1340L113,1173L113,1173L108,1165L104,1158L101,1149L98,1141L96,1132L95,1123L94,1114L95,1106L96,1097L98,1088L101,1080L104,1071L108,1063L113,1056L118,1049L124,1042L131,1036L138,1031L145,1026L153,1022L162,1019L170,1016L179,1014L188,1013L196,1012L205,1013L214,1014L223,1016L231,1019L239,1022L247,1026L255,1031L262,1036L269,1042L275,1049L280,1056L397,1223"/>  </svg>